<?xml version="1.0" encoding="UTF-8" standalone="no"?>
<svg
   xmlns:dc="http://purl.org/dc/elements/1.1/"
   xmlns:cc="http://creativecommons.org/ns#"
   xmlns:rdf="http://www.w3.org/1999/02/22-rdf-syntax-ns#"
   xmlns:svg="http://www.w3.org/2000/svg"
   xmlns="http://www.w3.org/2000/svg"
   xmlns:sodipodi="http://sodipodi.sourceforge.net/DTD/sodipodi-0.dtd"
   xmlns:inkscape="http://www.inkscape.org/namespaces/inkscape"
   width="64"
   version="1.1"
   height="64"
   viewBox="0 0 64 64"
   enable-background="new 0 0 64 64"
   id="svg6"
   sodipodi:docname="arrow-filpped.svg"
   inkscape:version="0.92.4 (5da689c313, 2019-01-14)">
  <metadata
     id="metadata12">
    <rdf:RDF>
      <cc:Work
         rdf:about="">
        <dc:format>image/svg+xml</dc:format>
        <dc:type
           rdf:resource="http://purl.org/dc/dcmitype/StillImage" />
      </cc:Work>
    </rdf:RDF>
  </metadata>
  <defs
     id="defs10" />
  <sodipodi:namedview
     pagecolor="#ffffff"
     bordercolor="#666666"
     borderopacity="1"
     objecttolerance="10"
     gridtolerance="10"
     guidetolerance="10"
     inkscape:pageopacity="0"
     inkscape:pageshadow="2"
     inkscape:window-width="1920"
     inkscape:window-height="1027"
     id="namedview8"
     showgrid="false"
     inkscape:zoom="3.6875"
     inkscape:cx="32"
     inkscape:cy="32"
     inkscape:window-x="-8"
     inkscape:window-y="-8"
     inkscape:window-maximized="1"
     inkscape:current-layer="svg6" />
  <g
     id="g4"
     transform="matrix(-1,0,0,1,63.999139,0)">
    <path
       d="m 63.386,16.193 0.002,-0.002 c 0.002,-0.003 0.004,-0.006 0.006,-0.01 0.172,-0.195 0.298,-0.43 0.399,-0.678 0.032,-0.076 0.053,-0.148 0.076,-0.225 0.058,-0.191 0.094,-0.389 0.106,-0.596 0.006,-0.076 0.018,-0.148 0.016,-0.226 0,-0.04 0.01,-0.076 0.008,-0.115 -0.014,-0.239 -0.062,-0.47 -0.136,-0.687 -0.006,-0.023 -0.022,-0.041 -0.03,-0.064 -0.088,-0.239 -0.214,-0.451 -0.363,-0.645 -0.021,-0.027 -0.028,-0.063 -0.05,-0.09 L 53.109,0.709 c -0.789,-0.93 -2.084,-0.948 -2.894,-0.037 -0.808,0.91 -0.823,2.402 -0.032,3.334 l 5.558,6.549 C 47.62,9.479 39.637,11.188 39.26,11.272 14.614,15.739 -2.827,38.499 0.38,62.008 0.539,63.172 1.408,64 2.399,64 2.505,64 2.611,63.991 2.719,63.973 3.835,63.77 4.597,62.564 4.423,61.277 1.566,40.337 17.479,19.995 39.96,15.919 40.063,15.895 48.311,14.125 56.077,15.345 L 47.5,20.438 c -1.005,0.598 -1.398,2.02 -0.881,3.177 0.516,1.159 1.748,1.608 2.756,1.017 l 13.52,-8.028 c 0.183,-0.111 0.347,-0.25 0.491,-0.411 z"
       id="path2"
       inkscape:connector-curvature="0"
       style="fill:#FFFFFF" />
  </g>
</svg>
