<?xml version="1.0" encoding="utf-8"?>
<!-- Generator: Adobe Illustrator 23.0.2, SVG Export Plug-In . SVG Version: 6.00 Build 0)  -->
<svg version="1.1" id="Layer_1" xmlns="http://www.w3.org/2000/svg" xmlns:xlink="http://www.w3.org/1999/xlink" x="0px" y="0px"
	 viewBox="0 0 547 140" style="enable-background:new 0 0 547 140;" xml:space="preserve">
<style type="text/css">
	.st0{fill:#EE3A41;stroke:#FFFFFF;stroke-width:2;}
</style>
<path class="st0" d="M121.7,46.1l-1.2,1.6l-0.8,0.8l-1.6,0.9l-0.2,0.7c0,0-0.6,0.6-0.6,1c0.1,0.4,0.1,1.1,0.1,1.1s-1.1,1-1.6,1.3
	c-0.5,0.3-1.1,1-1.1,1s-0.4,0.5-0.6,0.6c-0.2,0.2-0.6,0.6-0.9,1.1c-0.3,0.5-0.6,0.8-0.8,1c-0.2,0.2-0.6,0.8-0.9,1.7
	c-0.2,0.9-0.9,1.9-0.9,1.9l-0.2,0.4c0.1,1.3,0.1,1.6,0.2,2c0.2,0.5,0.3,0.3,0.2,1.3c-0.2,1-0.2,1.4-0.3,1.9s-0.6,1.3-0.8,1.7
	c-0.2,0.4,0.3,1.1,0.3,1.1s0.2,1,0.1,1.3s0.1,0.7,0.1,0.7s0.9,0.6,1.3,0.9c0.3,0.3,0.9,0.8,0.9,1c0.1,0.2,0.7,1.3,0.8,1.6
	c0.1,0.2,0.7,1.1,0.9,1.3c0.2,0.2,0.9,1.1,0.9,1.1s1,0.8,1.3,1.1c0.2,0.3,0.9,0.5,1.2,0.7c0.2,0.2,0.8,0.2,1.1,0.4
	c0.3,0.2,0.9-0.2,1.3,0c0.3,0.2,1.2-0.2,1.4-0.3c0.2-0.2,0.8-0.7,1.2-0.5c0.4,0.2,0.6,0,0.9,0.1c0.3,0.1,0.8-0.3,1.1-0.3
	c0.3,0,1.1-0.3,1.3-0.3s1-0.5,1.3-0.5c0.3,0,0.7-0.3,1.1-0.2c0.4,0.2,0.2-0.3,0.9-0.1c0.7,0.2,0.9,0,1.2,0.2c0.2,0.2,0.6,0,0.8,0.3
	c0.2,0.3,0.6,0.6,0.7,0.9c0.1,0.3,0.6,0.6,0.6,0.6l0.5,0.1c0,0,0.6-0.5,0.8-0.2c0.2,0.3,0.9,0.2,0.9,0.2l0.7,0.8l0.2,0.3
	c0,0,0.5,1.3,0.4,1.7c-0.1,0.5-0.1,1.5-0.3,1.7c-0.2,0.2-0.4,1.3-0.4,1.3s-0.3,0.3,0.4,0.9c0.7,0.6,1.2,1.2,1.4,1.5
	c0.2,0.3,0.9,1.2,0.9,1.7c0.1,0.6,0.2,0.9,0.6,1.6c0.3,0.7,0.7,0.8,0.8,1.6c0.1,0.8,0.2,0.8,0.2,1.3c-0.1,0.6-0.3,0.6-0.1,1
	c0.2,0.4,0.6,1.1,0.5,1.3c-0.1,0.2-0.2,1.3-0.2,1.3l-0.2,0.5l-0.7,1.3l-0.5,0.7c-0.2,0.6-0.5,1.1-0.4,1.9s-0.4,0.8,0.2,1.6
	c0.6,0.8,0.9,1.7,1.3,2.4c0.4,0.7,0.6,1.4,0.7,1.9c0.1,0.5,0.4,0.6,0.6,1.3c0.2,0.6,0.2,0.9,0.2,1.3c0,0.4-0.1,1.4,0.1,1.7
	c0.2,0.2,0.2,0.9,0.3,1.3c0.1,0.3-0.2,0.4,0.2,0.9c0.5,0.6,0.8,0.9,1.1,1.3c0.3,0.4,0.2,0.2,0.5,0.8c0.2,0.6,0.6,0.9,0.6,1.3
	c0.1,0.5,0.2,1.7,0.4,2.2c0.2,0.6,0.6,1.1,0.6,1.1s0.9,0.6,1.2,0.5c0.3-0.1,0.9-0.8,1.4-0.6c0.5,0.2,0.9,0,1.3,0
	c0.4,0,0.8-0.5,1.2-0.5c0.4,0,0.9-0.6,1.3-0.5c0.3,0.2,0.7-0.2,1.1-0.6c0.4-0.4,0.6-0.7,1.3-1.3c0.7-0.6,0.6-0.6,1.1-1
	c0.5-0.4,0.9-1.3,1.5-1.4c0.6-0.2,0.7-0.7,0.9-1.1c0.2-0.4,0.2-0.6,0.5-0.9c0.2-0.3,0.1,0.1,0.5-0.9c0.4-1,0.9-1.4,1.3-1.7
	s0.6-0.7,0.9-0.8c0.2-0.1,0.6,0.2,0.5-0.5c-0.2-0.7,0-1.7-0.2-2c-0.2-0.2-0.4,0.6-0.3-0.6c0.1-1.2,0.9-2.4,0.9-2.4s1.2-1.5,1.6-1.7
	c0.4-0.2,0.5-0.5,1-0.8c0.6-0.3,1.7-1.1,1.7-1.5c0-0.4,0.5-1.4,0.5-1.7s0-0.5-0.2-1.8c-0.2-1.3,0.2-1-0.3-2.3
	c-0.5-1.3-0.6-2.8-0.9-3.2c-0.3-0.4-0.2-1.4-0.2-1.7c0-0.3,0.6-1.1,0.8-1.4c0.2-0.3,1.3-1.6,1.3-1.6s1.6-1.8,2.1-2.7
	c0.6-0.9,1.1-1.7,1.5-2c0.4-0.3,1.3-1,1.9-1.8c0.6-0.8,1.6-2.3,1.7-2.5c0.1-0.2,0.7-1,0.7-1s0.9-1,1-1.6c0.2-0.6,0.9-3.6,0.8-3.5
	c-0.2,0.2-1.1,0.3-1.4,0.4c-0.3,0.1,0.5,0.4-1.8,0.2c-2.3-0.2-3.5,0.2-3.5,0.2c-0.7-0.2-1.3,0.6-1.5-0.5c-0.2-1.1-0.4-1.7-0.9-2.5
	c-0.5-0.8-0.8-1.1-1.5-2.1c-0.7-1-0.6-0.6-1.3-1.3c-0.6-0.8-0.8-0.6-1.2-1.6c-0.4-1-0.7-0.6-1.2-2c-0.5-1.4-0.8-1.6-1-2.4
	c-0.2-0.8-0.6-1-0.7-1.7c-0.2-0.7-2-4.3-2.2-4.6c-0.2-0.2-0.6-1.5-0.5-1.3c0.1,0.2,1.2,1,1.2,1s0.6-0.2,0.9-0.2s1.2,0.9,1.2,1.2
	c0,0.3,1.6,1.8,2,2.9c0.4,1.1,0.9,1.9,0.9,2.2c0.1,0.3,0.9,1.6,1.2,2c0.3,0.5,1.3,1.4,1.5,1.9c0.2,0.5,1.6,2,1.6,3.1
	c0,1,0.7,2.4,0.8,2.7c0.1,0.3,1.5,0.7,1.5,0.7l1.9-0.5c0,0,2.8-1.8,3.1-1.8s2.8-1.2,2.8-1.2s1-0.9,1.7-1.5s1.5-1.6,1.6-2
	c0.2-0.5,0.5-0.5,1.1-1.3c0.6-0.7,1.5-1.4,0.9-1.9c-0.6-0.5-0.9-0.3-1.6-1.1c-0.8-0.8-0.7-0.6-1.3-1.7c-0.6-1,0.1-2.2-1.1-1
	c-1.2,1.2-0.7,1.5-1.9,1.7c-1.2,0.2-1.6,1-2.2,0.2c-0.6-0.8-1.1-0.3-1.4-1.5s-0.6-1.3-0.6-1.7c-0.1-0.5,0-0.5-0.6-1.7s-0.2-3,0.2-2
	c0.4,1,1,1.2,2,1.9c1,0.7,1.5,1.3,2.4,1.3c0.9,0.1,1.7,0,1.9,0.2c0.2,0.2,0.3-0.1,0.7,0.1c0.4,0.2,0.5-0.2,0.7,0.4
	c0.2,0.6,1,0.7,1.4,1.1c0.4,0.4,0.4,0.2,1.4,0.4c1,0.2,2.4,0.2,2.4,0.2l1.5-0.1l1.7,0.2c0,0,1.3,0.7,1.6,0.7c0.3,0,0.4,0.9,1.2,1.3
	s0.9,0.5,1.4,1.1c0.5,0.6,0.4,0.8,1,1.3c0.6,0.5,1.6-0.1,1.8-0.3c0.2-0.2,0.9-0.6,0.8,0c-0.2,0.6,0.8,0.4,0.6,1.9
	c-0.2,1.5-0.4,1.1,0,2.1c0.4,1,2.1,4.2,2.2,5.1c0.1,0.9,0.6,0.6,0.6,1.5c0.1,0.9,0.6,1.2,0.6,1.8c0,0.6,0.6,0.8,0.6,1.3
	c0.1,0.5,0.9,0.1,1.2,0c0.2-0.1,1.3-1.1,1.3-1.1s0.5-0.2,0.4-0.9c-0.1-0.8,0-0.6,0-1.8s-0.5-1.2-0.2-2.4c0.2-1.2,0.9-1.9,1-2.4
	c0.2-0.6,0.8-1.5,1.1-1.6c0.3-0.1,2-0.9,2.4-1.5c0.4-0.5,1-1.2,1.6-1.8c0.6-0.6,1.7-1.4,2-1.2c0.2,0.2,0.2,0.2,0.5,0.2
	c0.4,0,1.1,0.3,1.6,0.4c0.6,0.1,1.6,1.4,1.9,2.1c0.2,0.7,0.1,0.5,0.9,1.6c0.9,1,1.6,0.4,1.6,1.7c0,1.3,0,1.2,0.4,1.7
	c0.4,0.5,0.9-0.9,1.3-0.7c0.5,0.2,0.6-0.2,0.9,1.1c0.4,1.3,0.6,1.3,0.7,2.5c0.1,1.3-0.1,0.1-0.1,1.1c0,1-0.1,1.1,0.1,2
	c0.2,0.9,0.7,1.3,0.6,1.4c0,0,0.5-1.3,0.3-2.3c-0.2-0.9,0-2.3,0.4-2.7c0.4-0.4,0.8-0.8,1.1,0.2c0.3,1,0.5,0.2,1.2,1.4
	c0.7,1.2,1.3,0.9,1.4,1.5c0.1,0.6,0.5,0.6,1,1.1c0.6,0.5,1-0.1,1.6-0.6c0.6-0.5,2.4-2.2,2.4-2.9c0.1-0.7,0.8-0.6-0.5-2.4
	c-1.3-1.8-1.3-2.4-2.6-3.5c-1.3-1.1-2.1-1.2-1.1-2.6c1-1.4,1.5-2.4,2.1-2c0.6,0.4,1.7,0.3,1.7,1.9c0,1.6-0.3,3.3,0.8,1.4
	c1.1-1.9,1.6-3,1.3-2.7c-0.3,0.3,0.7-0.6,0.7-0.6s0.1-0.7,1.4-1c1.3-0.3,1.7-0.5,2.2-0.7c0.5-0.2,1.8-1.8,2-2.5
	c0.2-0.7,0.9-2,0.7-2.5s-0.9-3.2-1.1-3.1c-0.2,0.1-0.1,0.1-1.1-1c-1-1.1-1.7-1.9-1.9-2.4s-0.6-0.5-0.1-1.2c0.5-0.6,0.7-0.5,0.8-1.1
	c0.1-0.5,0.7-1-0.5-0.6c-1.2,0.4-0.3,0.2-1.3,0.1c-1-0.1-3.7,0.5-2.4-1.1c1.3-1.7,1.7-2.7,2-2.7s1.4-1.3,1.5-0.1
	c0.1,1.3,0.6,0.9,0.6,1.7c0.1,0.8,1.6-0.9,1.6-0.9s0.5,0.2,0.9,0.5c0.4,0.4,0.4,1.7,0.4,1.7s-0.3-0.4,0.6,0.2
	c0.9,0.6,1.8,0.3,1.8,1.7c0,1.3,0,1.4,0.6,1.7c0.6,0.3,1.1,0.2,1.6-0.2c0.5-0.4,1.3-1.8,1.3-1.8s0.1-0.5-1.2-1.3
	c-1.3-0.8-2-1.3-2.5-1.7c-0.5-0.4-0.3-1.6,0.2-2c0.5-0.5,0.7-0.7,0.6-1.3c-0.2-0.6,0.2-1.1,1.4-1c1.2,0.1,1.4-0.1,1.4-0.1
	s0.2,0.2,0.2-0.3c0-0.5,1.5-2.7,1.1-2.7c-0.4,0,0.1-0.5-0.2-1.4c-0.2-0.9,0.8-2.2-0.1-2.8c-0.9-0.6-1.1-0.9-1.6-1.9
	c-0.6-0.9-0.5-1.1-2.5-1.3c-2-0.2-3,0.5-3.5-0.2c-0.5-0.6-0.7,0.9-1-0.9c-0.3-1.9,0.5-3.1,0.5-3.1s1.3-0.8,1.6-1.3
	c0.3-0.5,1.6-0.8,2.6-0.4c1,0.4,2.5,0.3,3.8,0.5c1.3,0.2,1.2,1,1.8,0c0.6-1,0-1.5,0.5-2c0.5-0.5,1-1.4,1.4-0.9
	c0.4,0.5,1.2,1.1,1.8,0.4s0.9-0.8,0.9-0.8L254,19c0,0,0.7-0.4,0.7,0.3s0.7,1.5,0.3,2s-0.9,0.5-0.9,1.8c0,1.3,0,1.1,0.9,2.2
	c0.9,1.1,1.4,0.2,1.6,1.3c0.2,1.2,0.3,0.9,1.2,1.7c0.9,0.8,0.7,0.8,1.3,1.3c0.6,0.5,0.9,0.9,0.9,0.2c0-0.8,0.1-1.2,0-1.9
	c-0.1-0.7,0.6-1.3,0.2-2.4c-0.5-1.2-0.1-1.1-1-2c-0.9-0.9-1.6,0.2-1.9-1.1c-0.3-1.3,1.5-1.8,2-2c0.5-0.2,1.2-1.1,1.3-0.5
	c0.2,0.6-1.2,2.9,1.1,0.5c2.3-2.4,1.3-1.4,1.3-1.4s1.2-0.2,1.4,0c0.2,0.2,0.9-0.7,0.6-0.6c-0.2,0.1-2.5-1.3-2.5-1.3l-1.6-0.9
	c0,0,0.5-0.4,0.9-0.3c0.4,0.1,0.5-0.8,0.9-0.9c0.4-0.1,3.1,0.6,3.6,0.9c0.5,0.3,2.5,0.4,2.3,0.2c-0.2-0.2-1.5-1.1-1.6-1.4
	c-0.1-0.3-2.8-0.9-3.7-0.9c-0.9,0.1-1.6,0.3-2.4,0.1s-1.7-0.9-2.3-0.9s-7.5-1.3-7.8-1.3c-0.3,0.1-0.8,1.6-1,1.3
	c-0.2-0.2-0.6-0.2-1.7-0.6c-1.1-0.3-2.6-0.6-4.6-0.7c-2-0.2-3.3,0.2-3.8-0.5c-0.6-0.6-1.7-0.4-3.1-0.5c-1.3-0.1-2.9,0-3.6,0
	s-2.4-0.1-2.7-0.2c-0.4-0.1-0.9-0.6-1.3-0.7c-0.5-0.1-0.4-0.2-1.3-0.4c-0.9-0.2-0.9-1.2-1.2-0.3c-0.3,0.9-0.2,0.6-0.6,0.9
	c-0.5,0.3-0.9,0.9-1.3,0.9c-0.3,0-1.6,0.1-1.8-0.1c-0.2-0.2-0.6-0.3-1.4-0.3s-0.8,0.1-1.8-0.1c-1-0.2-1.8-0.1-2.7-0.6
	c-0.9-0.5-0.9-0.8-1.7-0.7c-0.8,0.1-0.8-0.2-1.9-0.2s-2.4,0.6-3.1,0.7c-0.7,0.1-2.3-0.1-2.8-0.3c-0.6-0.2-0.7-0.8-2.7-0.6
	c-2,0.2-3.2,0.2-2.8-0.4c0.4-0.6,0.9-1.3,1.1-1.3c0.2-0.1,0.8-0.5,0.4-0.6c-0.4-0.2-0.8-0.4-1.7-0.5c-0.9-0.1-0.9,0.3-2.3,0.2
	s0.8-0.6-2.1-0.5c-2.9,0.1-3.6,0.3-3.9,0.3c-0.3,0-0.7-0.6-1.5,0.3s-1.9,1.5-3.5,1.6c-1.6,0.1-1.6-0.2-3.1,0.4
	c-1.5,0.6-2.4-0.2-2.1,1.1c0.3,1.3,0.7,1.7,0.7,2c0,0.2-0.7,1.8-1.6,0.9c-0.9-0.9-2.4-4.6-1.7-2.1c0.7,2.5,2.3,3.4,0.8,3.8
	c-1.5,0.4-1.3-0.2-1.6-0.3c-0.2-0.2,0-1.3-0.1-1.9c-0.1-0.6-0.2-1-0.6-1.3c-0.3-0.3-0.2-0.8-0.9-0.9c-0.6-0.2-0.1-0.5-1.1-0.5
	s-1.9-0.6-1.6,0.8c0.2,1.4,0.5,0.5,1.1,1.8c0.6,1.3,1.8,0.4,0.9,1.3c-0.9,0.9-3.1,0.6-3.7,0.2s-0.4,0.2-1.4-0.6
	c-1-0.7-0.7-1.3-1.9-0.7c-1.2,0.6-1.6,1.6-2,1.2c-0.5-0.4-1.6,0.6-2,0.1c-0.4-0.5-2-0.5-2.3,0c-0.3,0.5-1.3,0.4-2.6,1
	c-1.3,0.6-0.9,0.1-2.6,1.4c-1.6,1.3-2.6,2.4-3.1,1.6c-0.6-0.9-3.5-2.4-2.4-2.6c1.2-0.2,1.7-0.7,2.4-0.2c0.6,0.6,1.6,0.4,1.8,0
	c0.2-0.4,0.9-0.8-0.1-1.3c-0.9-0.5-1-0.2-2.5-0.7c-1.5-0.6,0-0.4-2-0.7c-2-0.3-2.9-0.5-3.5-0.6c-0.6-0.2-1.3,0-2.1-0.1
	c-0.8-0.1-1.3-0.2-2-0.2c-0.7,0.1-1.1-0.1-2,0.6c-0.9,0.7-1.6,1-2.3,1.6c-0.6,0.6-2.3,1.6-2.7,2c-0.5,0.4-2.1,1.7-2.3,2.1
	c-0.2,0.5,0.2,0.9-0.5,1.2c-0.6,0.3-1.3,0.3-1.7,0.4c-0.5,0.1,0-0.7-0.5,0.1c-0.5,0.8-0.3,3.6,0.1,3.2c0.4-0.4,0.2-1.7,1.9-0.5
	c1.7,1.2,2.8,1,2.7,2.1c-0.1,1.1,1.2,1,1.3,1.3c0.2,0.2,0.9-0.3,0.9-0.3s1.7-1.1,1.7-1.7c0-0.5,1.1-1.8,1.1-1.8s-0.8-0.4-0.8-1.2
	c0-0.8,0.2-1,0.4-1.8c0.2-0.8-0.9,0,1.5-1.5c2.4-1.5,2.5-0.5,2.5-0.5s0.3,0.3-0.1,0.8c-0.4,0.5-1.1,1.7-1.3,1.9
	c-0.2,0.2,0.7,1.4,1.1,1.4c0.4,0,1.2-0.3,1.6-0.2c0.5,0.1,1.3-0.2,1.5-0.1c0.2,0.2,0.8,0.6,0.4,1c-0.4,0.4-1.3,0.9-1.9,0.7
	c-0.6-0.2-1.6-1.3-1,0.3c0.6,1.6-0.1,2-0.6,1.9c-0.5-0.1-1.5-0.9-1.3,0.3c0.2,1.2-1,2-1.3,2s-0.7-0.1-0.7-0.1s-0.7-0.1-1.1-0.1
	c-0.4,0-1.2,0.4-1.4,0.7c-0.2,0.3-0.6,0.1-0.9,0.1s0-0.5-0.8-0.6c-0.8-0.2-1.3-0.3-1.7,0c-0.5,0.3-1.2,0.5-1.5,0.2
	c-0.3-0.2,0.2-0.8-0.5-0.5c-0.6,0.3-1.1,1.2-1.3,1.3c-0.2,0.1,0.7,0-0.2,0.1c-0.9,0.1-1.3,0.3-1.8,0.5c-0.5,0.2,0.2,1.1-0.7,1.4
	c-0.9,0.3-0.2-0.4-1.1,0.3c-0.9,0.7-1,1.3-1.3,1.4c-0.3,0.1-0.2,0.2-0.9,0.3c-0.7,0.1-0.6,0.2-1,0.2c-0.4,0.1,0.1,0.2-0.8,0.1
	c-0.9-0.2-1.5,0.2-1.3,0.5c0.2,0.3,3.1,1.2,0.9,1.1c-2.2-0.1-1.5,0.3-1,0.6c0.5,0.3,0.7,0.6,0.9,0.7c0.2,0.1,0.6,1,0.6,1
	s0.6-0.1,0.2,0.5c-0.4,0.5,0.2,0.7-0.2,1.4c-0.4,0.7-0.4,0.2-0.7,0.4s-0.8,0.7-1.7,0.2c-0.9-0.5-1.5-0.7-2.5-0.8
	c-1-0.1-0.3-0.2-1,0.3c-0.7,0.5-0.9,1.2-0.8,1.9c0.1,0.7,0.2,1.7-0.1,2.1c-0.2,0.5-0.2,0.9-0.1,1.7c0.2,0.7,0.6,1,0.6,1
	s1.1,0.2,1.3,0.2c0.2,0.1,0.7-0.2,1.3,0.2c0.6,0.4,1.3,0.5,1.7,0.1c0.4-0.5,2-1,2.4-1.5c0.5-0.5,0.8-0.6,0.5-1.1
	c-0.2-0.5,0.5-1.7,0.9-1.9c0.4-0.2,1.3-0.5,1.3-0.5l0.9-1.4c0,0,0.8-0.9,1.2-0.8c0.4,0.1,2.6,0.9,2.4-0.2c-0.2-1,0.2-1.3,0.4-0.9
	c0.2,0.4,0.9,0.2,0.9,0.2s0.3-0.2,0.6,0.1c0.2,0.2,0.6,1.3,1,1.5c0.5,0.2,0.9,0.5,1.2,0.6c0.3,0.2,0.6,0,1.3,0.5
	c0.6,0.5,1.3,0.9,1.3,1.1c0.1,0.2,0.6,0.8,0.6,0.8s0.5,0.2,0.4,0.5c-0.2,0.3-0.9,1.3-1.3,1.4c-0.4,0.2-1.4-0.2-1,0.2
	c0.4,0.3,0.9,0.7,1.2,0.5c0.2-0.2,1.7-1.8,1.7-1.8s-0.1,0.1,0-0.4c0.1-0.5,0-1,0.4-0.8c0.4,0.2,0.6,0.5,0.8,0.2
	c0.2-0.3,0.3-0.2-0.1-0.4c-0.4-0.2-1.3-1.6-1.8-1.7c-0.5-0.1-1.6-0.9-1.6-0.9s-0.2-0.2-0.8-0.9c-0.6-0.6-0.7-0.5-0.9-1
	c-0.2-0.6-0.6-1.3,0.2-1.1c0.9,0.2,1.4,0.7,2.2,1.2c0.8,0.5,0.6,0.6,1.3,1.1c0.7,0.5,0.8,0.9,1.3,0.9c0.6-0.1,1.2,0.3,1.2,1
	s0.2,1.5,0.3,1.7s0.6,0.5,0.8,0.8c0.2,0.3,0.5,1.1,0.7,1.4c0.2,0.3,0.5,0.5,0.7,0.9c0.2,0.4,0.3-0.1,0.6,0.1
	c0.2,0.2,0.6,0.1,0.6-0.2c0-0.3,0.1-0.9,0.1-0.9s1.1-0.3,0.8-0.5c-0.3-0.2-1.3-1.1-1.2-1.4c0.1-0.3,0-0.9,0.4-0.9
	c0.4,0.1,0.8,0.8,1.6,0.2c0.9-0.6,1.9-0.9,1.6,0c-0.3,0.9,0.1,1.1,0,2.1c-0.1,1,0.3,0.7,0.9,1.3c0.6,0.5,0.9,0.6,1.3,0.8
	c0.4,0.2,1,0.1,1.6,0.2c0.6,0.1,1-0.2,1.6-0.1c0.5,0.2,1.8-0.1,2,0.1c0.2,0.2,1.2-0.3,1.3,0.2c0.1,0.5,0.4-0.1,0.2,1.2
	c-0.2,1.3-0.6,2.1-0.6,2.1c-0.9,1.7-1.2,2-1.6,2.1c-0.4,0.1-0.6,0.3-1.3,0.2c-0.7-0.1-1.6,0-2.6-0.2c-1-0.2-2.9,0.2-3.7-0.2
	c-0.8-0.5-1.9-0.1-2.4-0.6c-0.5-0.5-1.3-0.5-1.6-0.8c-0.3-0.3-0.5-1.2-0.5,0.1c0,1.3-0.7,1.3-0.9,2c-0.2,0.6,0.2,0.3-0.6,0.2
	c-0.9-0.1-1.1,0.4-2.4-0.5c-1.3-0.9-1.9-0.9-2.5-1.3c-0.6-0.4-1.3,0.7-1.9-0.5c-0.6-1.3-1.5-0.2-1.6-1.3c-0.1-1,0-0.9,0.1-1.6
	c0.1-0.6,0.9-1.2,0.6-1.4c-0.4-0.2-0.1-0.6-0.6-0.4s-1.3,0.3-2,0.5c-0.6,0.2,1.4,0-1.6,0.2c-3.1,0.2-3.9,0.5-3.9,0.5
	s-0.2-0.2-0.6,0.2c-0.4,0.3-0.9,0.8-1.5,0.5c-0.6-0.2-0.9-0.2-1.3-0.1c-0.5,0.1-0.8-0.4-1.3,0c-0.5,0.4-1.2,0.5-1.4,0.4
	C122.1,46.7,121.7,46.1,121.7,46.1L121.7,46.1z M174.2,97.8c-0.2,0.9-1.1,2.1-1.1,2.1l-1.6,0.8c0,0-0.5,0.5-0.9,0.6
	c-0.3,0.1-1.1,0.5-1.1,0.5s-0.7-0.2-0.5,0.6c0.2,0.7,0.3,1.6,0.2,1.8c-0.1,0.2-0.1,0.7-0.1,1.3c0,0.6-0.2,1.4-0.6,1.6
	c-0.4,0.2-0.8,0.3-0.7,0.9c0.1,0.6,0.1,2.2,0.1,2.2l1,1.6c0,0,0.3-0.2,0.9-0.2c0.6,0,1.3-0.6,1.3-0.6s0.7,0.2,0.6-0.7
	c-0.1-0.9,0.3-1.9,0.2-2.1c-0.1-0.2,0.7-1.3,0.7-1.5s0.8-1.3,0.8-1.7s0.5-1,0.6-1.5c0.1-0.5,0.2-1.6,0.3-1.9
	c0.2-0.3,0.2-0.6,0.2-0.9v-0.9L174.2,97.8L174.2,97.8z M235.7,108.5c-0.2,0.3-0.4,3.7-0.6,4.1c-0.2,0.4-0.5,2.4-0.3,2.9
	c0.2,0.5,0.4,2.2,0.2,2.8c-0.2,0.6,0.1,2.3-0.3,2.2c-0.4-0.1-0.6,0.1-0.6,0.3c0,0.2,0.6,0.7,0.6,0.7s0.9,0,1.3-0.1
	c0.4-0.1,1.2-0.5,1.8-0.5s1-0.5,1.6-0.5s1.7-0.4,2-0.2c0.3,0.2,0.8-0.9,1.3-0.7s1.7-0.6,2.3-0.6s0.8-0.9,1.4-0.7
	c0.6,0.2,1.8-0.3,2.4-0.1c0.6,0.2,1.4-0.8,1.8,0c0.4,0.8,1.6,1.1,1.6,1.5s-0.1,1.3-0.1,1.3l0.9-0.1c0,0,1.5-0.9,1.7-0.9
	c0.2,0,0.8-0.8,0.8-0.4s-0.5,1.3-0.6,1.7c-0.2,0.4,0.2,0.9,0.2,0.9s0.8,0.4,0.5,1.1c-0.3,0.7,0.1,0.6,0,1.1c-0.1,0.6,0,0.3,0.3,0.6
	c0.3,0.3,0.9,0.9,1.3,0.8c0.5-0.1,0.6-0.6,1-0.3c0.4,0.2,1.2,0.1,1.4,0.4s-1.5,1.1,1.5-0.2c3-1.3,3.3-1.7,3.7-2.1
	c0.4-0.5,0.9-0.9,1.2-1.3c0.3-0.3,0.1-0.2,1-0.9c0.9-0.7,0.9-0.4,1.8-1.7c0.9-1.3,1.5-1.8,1.6-2c0.2-0.2,0.5-0.3,0.5-1.3
	c0.1-0.9,0.7-1.8,0.7-2.1s0.2-0.8,0.2-1.3c-0.1-0.6,0.3-1.3-0.2-2.1c-0.5-0.8,0.2-1.1-0.5-1.4c-0.7-0.3-1.2-0.2-1.3-0.7
	c-0.2-0.6-0.8-0.5-1-2c-0.2-1.5-1.2-1.7-1.2-1.7s-0.9-0.4-0.7-0.6c0.2-0.2,0.3-1.3,0.2-1.6c-0.1-0.3-0.1-1-0.3-1.5
	c-0.2-0.5-0.4-1.1-0.6-1.7c-0.2-0.6-0.6-0.7-0.8-1.3c-0.2-0.6-0.4-0.9-0.5-1c-0.1-0.2-0.2-0.9-0.4-0.1c-0.2,0.9-0.5,2.5-0.5,2.5
	s-0.6,1.3-0.9,1.7c-0.2,0.4-0.5,1.4-0.9,1.3c-0.4-0.1-0.6,0.4-0.9,0.3c-0.3-0.1-0.8,0.1-1-0.2c-0.2-0.2-0.9-0.9-1.2-0.9
	c-0.3-0.1-0.5-0.7-0.8-0.7c-0.2,0-0.6-0.6-0.5-0.9c0.1-0.3,0.2-1,0.2-1.3c0.1-0.3,0.5-1,0.5-1s0-0.5-0.4-0.5s-0.5,0-1.3-0.1
	c-0.9-0.1-1.1-0.2-1.4-0.2c-0.3,0,0.3-0.2-0.6,0.1c-0.9,0.2-1.3,0.9-1.8,1.4c-0.6,0.6-0.1,0.4-0.6,0.6c-0.5,0.2-0.4-0.4-0.7,0.5
	c-0.3,0.9,0.2,1.1-0.1,1.3c-0.2,0.2-1.9-0.6-1.9-0.6s0.4-0.1,0.1-0.5c-0.3-0.4-0.6-0.9-1.1-0.7c-0.5,0.2-0.9,0.4-1.2,0.8
	c-0.3,0.4-0.3,0.7-0.6,1c-0.2,0.3-0.9,0.3-0.9,0.6c-0.1,0.3-0.1,1.1-0.3,1.2c-0.2,0.1-0.3-0.3-0.6-0.4c-0.2-0.1-0.2-0.7-0.3-0.3
	c-0.2,0.4-0.3,0.3-0.6,0.9c-0.2,0.6-0.3,1.2-0.6,1.3c-0.2,0.1,0,0.2-0.7,0.6c-0.7,0.4-0.9,0.4-1.9,0.9s-0.8,0.5-1.5,0.6
	c-0.7,0.1-0.9,0.3-1.3,0.4c-0.5,0.1-0.8,0.2-1.3,0.6c-0.5,0.5-0.9,0.6-1.2,0.7C236,108.1,235.7,108.5,235.7,108.5L235.7,108.5z
	 M240.3,77.4c-0.3,0.5-1.3,1.9-1.7,2c-0.4,0.1-0.8,0.5-1.1,0.4c-0.3-0.1-1,0-1.3,1c-0.2,1-0.6,1.6-0.9,1.5c-0.2-0.1,0.4,1.5-0.9,0.9
	c-1.3-0.6-0.9,0.6-1,0.9c-0.2,0.3,0.2,1.2,0.3,1.5c0.1,0.3,0.3,0.9,0.6,1.3c0.3,0.5,0.6,1,1.1,0.9c0.6-0.2,2.3,0,2.3,0
	s0.6,0.2,1,0.2c0.4,0,0.5-0.2,0.7-0.2s0.7-0.8,0.6-0.9c-0.1-0.1-0.3-0.3,0.2-0.8c0.5-0.5,1-0.6,1.1-1.2c0.1-0.6-0.2-0.6,0.1-0.9
	c0.2-0.3,0.8-0.2,0.6-0.6c-0.2-0.3,0.2-0.2-0.2-0.9c-0.3-0.6-0.7-0.9-0.4-1.7c0.3-0.8,0.6-0.9,0.6-1.4c-0.1-0.5,0.4-0.6-0.2-1.2
	c-0.5-0.6-0.8-0.7-1.2-0.9L240.3,77.4L240.3,77.4z M255.7,85.3c0.3-0.1,1.4-0.9,1.5,0.6c0.1,1.4,0.2,1,0.6,1.8
	c0.5,0.8,0.8,1,1.3,0.6c0.5-0.4,1.2-0.4,1.3-1.1c0.2-0.7,0.2-0.7,0.6-0.7c0.5,0,0.6-0.1,0.9,0.2c0.2,0.3,0.4,0,1.4,0.6
	c1,0.6,1.9,0.4,2.5,0.9c0.6,0.6,0.9,0.5,1.8,0.8c0.9,0.3,0.5-0.2,1.3,0.7c0.8,0.9,0.5,1.1,0.9,1.5c0.4,0.4,0.7-0.3,0.5,0.6
	c-0.2,0.9-1.3,0,0.4,1.3c1.6,1.3,1.9,1.6,2.4,2c0.5,0.4,0.9,0.9,0.5,0.9c-0.5,0-2,0-2.1-0.2c-0.2-0.2-0.9-0.4-1.3-0.9
	c-0.5-0.6-1.5-0.9-1.7-1.4c-0.2-0.5-0.5-0.6-0.9-0.6c-0.4,0-0.8,0.5-1.3,1c-0.5,0.6-0.3-0.3-1-0.1c-0.7,0.2-1.5-0.1-1.9-0.4
	c-0.4-0.3-0.3-0.8-0.9-0.6c-0.6,0.2-1,0.1-0.8-0.4c0.2-0.5,0.1-1.1,0.1-1.1s0.2-0.8-0.3-0.9c-0.5-0.2-0.5-0.7-1.1-0.9
	c-0.5-0.2-1.4-0.6-1.4-0.6s-0.1,0-0.3-0.1c-0.2-0.1-0.2-0.1-0.9-0.2c-0.6-0.2-1.1,0-1.4-0.4c-0.3-0.4-0.2-0.9-0.2-0.9s1.3,0.2,0-0.8
	l-1.3-0.9c0,0,0.2-0.1,0.1-0.2C254.8,85.1,255.7,85.3,255.7,85.3L255.7,85.3z M220.4,78.7c0,0,0.4,0.4,1,0.3
	c0.6-0.1,1.1,1.3,1.5,1.7s0.6,0.7,1.5,1.3c0.9,0.6,0.8-0.5,2,1.2s0.6,0.6,1.2,1.7c0.6,1,0.9,1.6,1.2,1.8c0.3,0.2,0.6,0.9,0.6,1.1
	c0.1,0.2,0.6,0.9,0.6,1.2s0.2,0.9-0.3,1.4c-0.5,0.6-0.9,0.6-0.9,0.6s-0.9-0.5-1.3-0.9s-0.7-0.9-1.3-1.8c-0.6-0.9-1.2-2-1.5-2.4
	c-0.3-0.5-0.8-0.9-1-1.4c-0.2-0.5-0.9-1.9-1.2-2c-0.3-0.2-0.4-0.6-0.9-1.2c-0.6-0.6-0.5-1-0.7-1.3c-0.2-0.3-0.8-1-0.8-1L220.4,78.7
	L220.4,78.7z M67.7,140.1c-0.6-0.3-1.7-0.9-2.1-1.2c-0.4-0.3-1.6-2-1.6-2l-0.9-1.7c0,0-1-1.3-0.8-1.7c0.2-0.5,0.7-0.8,0.7-1
	s0.5-0.9,0.1-1.1c-0.4-0.2-0.4-0.3-0.6-1c-0.2-0.7-0.2-1.3-0.5-1.5s-0.5-1.2-0.9-1.3c-0.3-0.1-0.6-0.6-0.6-0.6l-0.5-6.4
	c0,0-0.2-2.9-0.3-3.5c-0.2-0.6,0.2-2-0.2-3.1c-0.4-1.2,0.1-2.6-0.2-3.1c-0.2-0.5,0.2-1.8-0.1-3.1c-0.2-1.3,0.9-2.8,0-3.3
	c-0.9-0.5-0.2-1.2-1-1.2c-0.8,0-1.3-0.4-2-0.9c-0.7-0.6-2-1.6-2.4-2c-0.4-0.4-1.7-1.4-2-1.7c-0.4-0.3-0.8-1.7-1.1-2
	c-0.3-0.4-0.5-1.6-0.9-2.3c-0.5-0.7-1.1-1.9-1.3-2.1s-1.9-2.3-1.9-2.3l0.2-1.3c0,0,1.2-0.7,1-0.9c-0.2-0.2,0.1-0.5-0.5-0.9
	c-0.5-0.5-0.5-1.3,0-1.7c0.5-0.4,1.2-1.7,1.2-1.7l1.2-2c0,0,0.9-1,0.9-1.7c0-0.7,1.3-1.2,0.5-1.8c-0.8-0.6-0.4-1.2-0.6-1.7
	c-0.2-0.5-0.1-0.8,0.6-1.3c0.7-0.5,2-2.2,2-2.2s0.9-0.2,1.2-0.2c0.2,0,0.6-2.5,1.3-0.9c0.7,1.7,0.9,0.8,0.7,2
	c-0.2,1.2,0.3,0.9,0.6,0.6c0.3-0.3-0.2,0.2,0.5-1.2c0.6-1.4,0.4-1.9,0.8-1.5c0.4,0.4,0.5,0.5,1.3,0.7c0.7,0.2,0.9,0.2,1.2,0.6
	c0.2,0.5,0.2-0.2,1.5,0.1c1.3,0.2,3.2-0.5,3,0.3c-0.2,0.8-0.7-0.1,0.4,0.8c1.1,0.9,1.3,1,1.9,1.2c0.6,0.2,1.2,0.1,2.1,1
	c0.9,0.9,1.2,1,1.4,1.5c0.2,0.5,0.6,0.2,1,0.6c0.4,0.5,0.9,0.5,1.5,0.5s0-0.5,0.9,0.2c0.9,0.6,1.5,0.7,1.9,2
	c0.4,1.3,1.2,1.2,0.6,2.4c-0.6,1.3-1.9,1.8-1.3,1.7c0.6-0.1,1.6-0.6,1.9-0.5c0.3,0.1,0.5-0.2,0.9,0c0.5,0.2,0.6-0.3,0.5,0.2
	c-0.1,0.6-0.1,0-0.1,0.6c0,0.6-0.2-0.6,0.8-0.3c0.9,0.2,0.4-0.5,1.5,0.6c1.1,1,1.1,0.7,1.5,1.3c0.4,0.6,0.8-0.3,1-0.1
	c0.2,0.2,0.9,0.1,1.7,0.2c0.7,0.2,0.2-0.5,1.3,0.2c1.1,0.7,2.2,0.5,2.4,1.1c0.2,0.6,0.9,0.4,1.2,0.8c0.3,0.4,0.5-0.2,0.8,0.4
	c0.3,0.6,1.3,0.4,1.1,0.9c-0.2,0.6,0.2,0.2,0.1,1c-0.2,0.8-0.7,2-1.2,2.4c-0.5,0.3-0.5,0.7-0.8,1.1c-0.3,0.4-0.2-0.4-0.6,0.7
	c-0.4,1.1-0.3,1.3-0.6,2.3c-0.3,1-0.1,0-0.3,1c-0.2,1-0.1,1.7-0.3,2.8c-0.2,1.2-0.2,1.2-0.3,2c-0.2,0.9,0.4-0.4-0.3,1.4
	c-0.7,1.8-0.8,1.7-1,2.5c-0.2,0.8,0.1,0.2-0.8,0.6c-0.9,0.5-0.4,0.3-1.4,0.6c-1,0.3-2.3,0.6-2.7,0.7c-0.4,0.1-2,0.6-1.5,1.5
	c0.5,0.9,0.5,1.1,0,2.3c-0.5,1.2-1.2,1.6-1.2,2.1s-0.3,1.1-0.4,1.5c-0.1,0.4,0.7-0.4-0.2,0.8c-0.9,1.2-1,0.9-1.3,1.6
	c-0.3,0.7,0,0.2-0.3,0.7c-0.3,0.6-1.1,0.8-1.1,0.8s0.1,0.4-0.2,0.2c-0.3-0.2-0.2,0.1-1.4-0.2c-1.2-0.3-1.3-1.1-1.5-0.6
	c-0.2,0.6,0.1,0.9,0.8,1.4c0.7,0.6,1.9,0.7,1.6,1.3c-0.3,0.6-0.3,0.6-0.6,0.9c-0.2,0.3,0.3,0.1-0.2,0.3c-0.6,0.2-0.9,1.3-1.1,1.3
	c-0.2,0-0.4,0.4-0.7,0.2s-1.1-0.7-1.3-0.4c-0.2,0.3-0.5-0.4-0.4,0.7c0.1,1.1,0.2,1.7-0.2,2c-0.4,0.2-1.3,0-1.3,0l-0.2-0.4l-0.6,0.2
	c0,0-0.2,0.9,0.2,1.1c0.4,0.2,0.3,0.3,0.7,0.8c0.4,0.5,0.2,1.3,0.2,1.3s0,0.2-0.4,0.6c-0.4,0.4-0.6,0.7-0.6,0.9
	c-0.1,0.2-0.6,1.3,0.2,1.2c0.7-0.1,1.3-0.5,1.3,0.8c0,1.3,0.3,0.9-0.1,1.8c-0.4,0.9-0.7,0.9-0.8,1.7c-0.1,0.8,0.1,0.9,0.2,1.3
	c0.2,0.5,0.6,0.2,0.2,0.5C68.8,140.3,67.7,140.1,67.7,140.1L67.7,140.1z M47.4,76.1l-0.5-0.8c0,0-0.2-0.5-0.6-0.6
	c-0.4-0.1-1.3-1.1-1.3-1.1s-0.4-0.3-0.4-0.9c0-0.6-0.3-1.4-0.1-2.4c0.2-0.9,0.3-2.1,0.2-2.4c-0.1-0.3,0.4-0.4-0.2-0.7
	c-0.5-0.3-1.7-0.4-2.4-0.4s-1.6,0.2-1.7,0.3c-0.2,0.1,0.9-2.4,1-2.8s0.9-2.1,0.9-2.4c0-0.2,0.2-0.3-0.2-0.6
	c-0.5-0.3-1.3-0.5-1.7-0.2c-0.5,0.2-0.4-0.3-0.8,0.6s-0.8,2-1.3,2.1c-0.5,0.2-1.4,0.6-1.4,0.6s-1.2-0.1-1.6-0.2
	c-0.4-0.1-2-0.9-2.4-1.5s-0.5-1.7-0.5-2.3c0-0.6,0.9-2.2,0.8-2.6c-0.1-0.4,0.9-2,0.8-2.2c-0.1-0.2,0.2-1,0.4-1.3
	c0.2-0.3,1.4-0.7,1.7-1c0.3-0.3,0.9-0.7,1.4-0.9c0.5-0.2,1-0.3,1.4-0.3c0.4,0,1.4-0.9,1.6,0s0.9,0.5,1.3,0.6
	c0.4,0.1,0.5,0.5,1.1-0.6s1.3-1.3,1.3-1.1c0,0.2,1-0.1,1.2,0.2c0.2,0.2,0.5-0.2,1,0.3c0.5,0.5,1.3,0.6,1.3,0.8
	C47.6,52.8,48,52.8,48,53c0,0.2,0.3-0.5,0.3,0.9c0,1.4,0.4,2.3,0.4,2.3s0.5,1.2,0.8,0.9c0.2-0.2,0.7-0.9,0.7-0.9s0.8-0.5,0.2-2.1
	c-0.5-1.7-0.2-2.1-0.3-2.7c-0.2-0.5-0.2-0.9,0.8-1.6s3.2-2.3,3.8-2.6c0.5-0.3,1.8-1.2,1.8-1.2s0.5-0.2,0.5-0.9
	c0.1-0.6,1.6-1.7,1.6-2c0.1-0.3,1.1-1.1,1.1-1.1s1.1-0.6,1-1c-0.1-0.4,1.4-1.1,1.7-1.1c0.2,0,1.5,0.4,1.5-0.3c0-0.7,0-0.9,0.8-1.5
	c0.8-0.6,1.8-1.6,2.2-1.6s1.7-0.7,2.3-0.9c0.6-0.2,2.3-0.9,0.7,0c-1.6,0.9-0.6,0.4-0.9,1.2c-0.3,0.8-0.6,1.8,0.9,0.6
	c1.5-1.2,1.4-1.4,2-1.5c0.6-0.1,0.2,0.2,1.3-0.2s1.3-0.5,1.3-0.5s0.6-0.5,0.2-0.7c-0.3-0.2,0.3-0.5-0.9-0.1
	c-1.2,0.5-1.1,0.5-1.9,0.3c-0.8-0.2-2-0.2-1.1-0.9c0.9-0.8,2-1,1.3-1.3c-0.7-0.3-2.5,0.1-2.7,0.2c-0.2,0.1-0.8-0.1-1.3,0
	c-0.5,0.1-0.3-0.6,0-0.8c0.3-0.2,1.3-0.6,2.6-0.9c1.3-0.3,4.3-0.4,5-0.4c0.7,0,1.7,0.2,2.2-0.2c0.5-0.4,1.6-1,1.8-1.3
	c0.2-0.3,0.8-0.8,0.8-0.8s0.7-0.7,0.3-1c-0.4-0.3-0.8-1-1.1-0.9c-0.3,0.2-0.1,1.1-0.7,0.1s-0.6-1.2-0.9-1.4
	c-0.3-0.2-0.6-0.1-0.4-1.2c0.2-1.1,0.2-1.6,0.2-1.6s0.2-0.9,0-1c-0.2-0.1-0.4-0.3-0.8-0.1c-0.4,0.2-2.6,1.3-3.1,1.6
	c-0.5,0.2-1.1-0.9-0.9-1.5c0.2-0.5,0.1-0.2-0.2-1c-0.3-0.8-1.6-0.9-2-0.9c-0.5,0-1.6-0.7-1.9-0.2c-0.3,0.5-2,2-2.3,2.1
	c-0.3,0.2-0.8-1.3-1,1.1c-0.2,2.4,0.9,3.1-0.4,3.3c-1.3,0.2-2.4,0.9-2.4,0.9s-1,0.1-1,0.7c0,0.6-0.4,2.1-0.9,2.3
	c-0.5,0.2-1.6-0.1-2-0.5c-0.4-0.5,0.1-2.2,0.1-2.2L60,26c0,0-5-0.8-4.9-1.1c0.1-0.3-1.5-0.9-1.7-1.3c-0.2-0.5-0.2-1.5-0.1-1.9
	s2.3-2.3,3.4-2.7c1.1-0.4,3-1.3,3.5-1.4c0.5-0.2,1.5-0.1,1.8-0.5c0.3-0.4,0.4-1.1,0.4-1.1s-0.2-1.1,0.2-0.9c0.3,0.2,0.9,0.4,0.9,0.6
	c0.1,0.2,0.1,0.8,0.6,0.2c0.5-0.6,1.3-0.9,1.9-1.2c0.6-0.3,1.6-0.2,2.1-0.6c0.6-0.3,1.5-0.6,1.6-1.4c0.1-0.8-0.2-0.6-0.6-0.6
	c-0.4-0.1,0.2,0.1-1.2,0.7c-1.3,0.6-0.9,0.2-1.9,0.6s-1,0.6-1.1,0.2c-0.1-0.4,0.2-1,0.2-1s0.1-0.1-0.5-0.2C64,12.1,64,12.4,64,11.7
	c-0.1-0.7,0.4-1.7-0.4-1.4c-0.8,0.3-1.5-0.2-2,1.3c-0.5,1.6-2.4,3.2-2.9,2.8c-0.5-0.4-0.5-0.5-0.9-0.5c-0.4,0-0.9-0.5-1.6-0.6
	c-0.7-0.1-2.8-0.1-3.4,0c-0.5,0.1-1.2-0.3-1.7,0.2c-0.5,0.5-1.2,1.1-1.2,1.3c0,0.2-0.7-0.9-0.9-0.8c-0.2,0.1-0.9-0.3-1.6-0.3
	c-0.7,0-1.2-0.4-1.4-0.4c-0.2,0,0.2-0.6,0-0.7c-0.2-0.1-5.3-0.2-5.3-0.2s-1.6-0.6-2.3-0.6c-0.6,0.1-2.4,0.2-3.7,0.4
	c-1.3,0.2-3.3,1-3.9,1.1c-0.6,0.1-2,0.1-2.3-0.3c-0.2-0.4,0.1-0.3-0.2-0.4c-0.3-0.1-0.1-0.2-0.8-0.8c-0.7-0.6,0.3-1-1.1-1
	c-1.4,0-2.3-0.1-3.5,0c-1.3,0.1-3.8,0.7-4.2,0.6c-0.3-0.1-2.8,0.4-3.2,0.2c-0.4-0.2-2.4,0.9-2.7,0.8c-0.4-0.1-1.9,0.1-2.3,0.3
	C10,13,8.1,13.5,8.7,13.9c0.6,0.4,0.5,0.8,0.6,1c0.1,0.2-0.6,0.8-0.6,0.8s-0.2,0-1-0.3c-0.9-0.3-1.8-0.5-2.2-0.2
	c-0.4,0.2-1.1,0.7-0.9,1c0.2,0.3,1.3,1,1.4,0.8s0.6-0.7,1-0.6c0.5,0.1,1.2-0.3,0.6,0.5c-0.6,0.8-1.2,1.2-1.6,1.3
	c-0.4,0.1-1.3,0.2-2.2,0.2c-0.9,0.1-0.8-0.3-1.6,0.5c-0.8,0.8-1.1,0.3-1.3,1.2c-0.2,0.9-0.3,0.9,0,1.1c0.3,0.2-0.6,0.3,0.1,0.5
	c0.7,0.2,1.6,0.5,1.5,0.7c-0.1,0.2,0.8-0.3,0.3,0.3C2.3,23.2,2,23.8,3,23.1c0.9-0.6,1.5-0.2,2.3-0.5c0.8-0.4,1.6-0.5,2-0.8
	c0.5-0.3,0.7-0.8,1.4-1c0.7-0.2,0.2,0.1,0.3,0.5c0.1,0.4,0,0.5,0.5,0.2c0.5-0.3,0.5-0.1,1.1-0.5c0.6-0.4,1.3-0.8,1.8-0.5
	c0.5,0.2,0.6,0.2,0.9,0.2s-0.4-0.1,0.3,0c0.7,0.1-0.3-0.2,2,0.3c2.4,0.6,3,0.2,3.1,1c0.2,0.9,0.5-0.1,0.9,0.5c0.4,0.6,0.6,0.1,0.9,1
	c0.2,0.9,0,3.5-0.2,3.9c-0.2,0.3-0.2,0.3-0.2,1c0.1,0.7,1,4.1,0.7,4.3c-0.3,0.2-1,0.3-1,0.3l-0.4,1.4c0,0-0.6,1.2-1.2,1.8
	c-0.5,0.6-1.3,1.4-1.6,2c-0.4,0.5-0.7,1.5-1.3,2c-0.6,0.5-1,0.3-0.9,1.5c0.2,1.2,0,2.4,0.2,3.3c0.2,0.9,0.6,2,0.9,2.5
	c0.3,0.5,0.6,0.5,1.1,0.9c0.6,0.4,1.3,0.9,1.2,1.3C17.8,50,18,52.5,18,52.5s0.5,0.8,0.5,1.7c0.1,0.9,0.6,1.7,0.6,1.7l0.5,1
	c0,0,0.2,0.1,0.5,0.7c0.3,0.6,0.3,0.6,0.4,0.9c0.1,0.3,0.1,0.2,0.1,0.3c0,0.1-0.1-1.3-0.2-1.7c-0.2-0.4-0.2-0.9-0.3-1.3
	c-0.2-0.5,0.1-1-0.4-1.7c-0.5-0.7-0.5-0.8-0.7-1.5c-0.2-0.7-0.5-1.5-0.2-1.7c0.3-0.2,0.5-1.2,1.2,0c0.6,1.2,0.7,0.9,0.8,1.8
	c0.1,0.9,0.3,1.3,0.5,1.7c0.2,0.4,0.8,1.7,1.1,2.3c0.3,0.5,0-0.3,0.7,0.8c0.7,1.1,0.8,1.3,1.2,2.2c0.4,0.9,0.6,0.9,0.9,1.5
	c0.2,0.6,0.1,0.5-0.1,1.2c-0.2,0.7,0.2,1.5,0.2,1.5s1.1,0.4,1.2,0.6c0.1,0.2,1.2,0.6,1.3,0.9s1.2,0.7,1.2,0.7s0.9,0.6,1.2,0.7
	c0.3,0.2,1.3,0.3,1.3,0.3s0.6,0.2,0.9,0.2c0.2,0.1,0.9,0.1,0.9,0.1s0.6-0.5,0.9-0.3c0.2,0.2,0.8-0.3,1,0.1c0.2,0.4,0.7,0.4,0.9,0.7
	c0.2,0.3,0.5,0.3,0.9,0.7c0.4,0.4,0.8,0.3,1.2,0.6c0.4,0.3,0.7,0.3,1.2,0.3c0.5,0,0.5,0,0.8,0.1c0.3,0.1,0.5-0.2,0.8,0.2
	c0.3,0.4,0.5,0.6,0.8,1c0.2,0.4,0.8,0.4,0.9,1c0.1,0.6,0.2,0.6,0.2,1.1c0,0.6,0.3,0.8,0.5,0.9c0.2,0.2,1.1,0.9,1.1,0.9l1.2,0.2
	l0.9,0.7L47.4,76.1L47.4,76.1z M72.6,3l4.7-0.6c0,0,1.7,0,2.5-0.6c0.8-0.6,0-0.6,2.5-1.1C84.7,0.3,84,0,85.3,0.3
	c1.3,0.2,1.6,0.2,3.1,0.5C89.8,1,90.1,0.6,91.4,1c1.3,0.4,1.9,0.2,2.9,0.2h3.3c1.7,0,3.2-0.9,3.8-0.4c0.6,0.6,0.9,0.4,2.9,0.6
	c2,0.2,2.8-0.2,3.7,0c0.8,0.2,2.2-0.1,3.9,0c1.7,0.1,2.5-0.1,3.1-0.1c0.6,0,1.2-0.8,2-0.1c0.8,0.7,1.9-0.2,2,0.7s1.6,0.2,0.1,0.9
	c-1.5,0.7-1.3,0.6-2.4,1.5c-1.1,0.9,0.7,1.8-1.5,2.6c-2.2,0.8-2.6-0.5-3.2,0.9c-0.6,1.4,0,1.8-0.1,2.5c-0.1,0.7-0.4,0.8-1.1,1.4
	c-0.7,0.6-0.7,0-2.4,0.4c-1.7,0.4-2.8,0.7-3.5,0.7c-0.7,0-2.2,0.6-2.7,0.8c-0.5,0.2,0.8,0.6-1.6,1.3c-2.5,0.7-3.1,0.6-3.8,1.5
	c-0.7,0.9-0.5,1.1-0.9,1.7c-0.5,0.6-1.9,3-2.6,2.4c-0.7-0.6-1.1-0.5-1.7-1.1c-0.6-0.6-0.9-1.4-1.3-1.9s-0.5-1.7-0.6-2.4
	c-0.1-0.7-1.2-2.4,0-2.1c1.2,0.2,1.9,0.1,2.2-0.1c0.4-0.2,0.7-1.1,0.7-1.1s-0.1-1.3-0.5-2c-0.4-0.7-0.1-1.3-0.7-2
	c-0.6-0.7-0.6-0.6-1.4-1.3c-0.8-0.7-0.6-1.1-1.9-1.2c-1.3-0.1-1.7-0.5-2.1-0.4s-2-0.8-0.4-0.9c1.7-0.1,3.2,0.1,3.2,0.1
	s2.1-0.9,1.4-1.1c-0.7-0.1,1.1-1.2-0.6-0.8c-1.6,0.4-3.5,0.8-4,0.9c-0.5,0.1-1.7,0.2-2.8,0.6S80.3,4.2,79.6,5s0,0.9-0.7,0.8
	c-0.7-0.1,0.6-0.8-1.1,0s-1.2,0.7-2,0.5c-0.8-0.2-1.4-0.6-1.4-0.6s1.1-0.1-0.5-0.2s-1.5-0.1-2.1-0.8c-0.6-0.7-0.2-0.7,0.1-0.9
	S72.6,3,72.6,3L72.6,3z M70,8.3c-0.6,0.6-2,1.4-1.7,1.8c0.4,0.4,0.6,1.6,1.3,1.3c0.7-0.4-0.1-1.5,2.6-0.6c2.7,0.9,2.5-0.1,3.1,1.3
	c0.6,1.4,1.1,2.5,0.7,2.8c-0.4,0.4-0.5,0.7-1.7,1.1c-1.2,0.4-1.6,0.8-0.8,1.4c0.8,0.6,2.4,1.2,3.1,1.5c0.7,0.4,2.8,0.5,1.8-0.7
	c-1.1-1.2,0.2-1.5,0.2-1.5s2,1.5,1.3-0.2c-0.7-1.8-1.2-1.8-0.7-1.8c0.5,0,1.4,0.6,1.4,0.6l0.5-0.9l-0.5-1.5L79,11.2
	c0,0,1.3-1.2-0.5-1.4C76.8,9.6,76.9,9.6,76,9c-0.9-0.6-1.1-0.8-2.8-0.5c-1.8,0.4-2.4,0.6-2.4,0.6L70,8.3L70,8.3z M43.7,9.7
	C44.4,9,46.3,7.4,47,7.8c0.7,0.5,1.8-0.4,2.6,0.4c0.8,0.7,1.8,1.5,2.5,1.8c0.7,0.2,1.5-0.6,2.2-0.2c0.7,0.4,3.2-1.8,2.7-0.1
	c-0.5,1.7,0.6,2.1-0.7,2.2C55,12,53.6,12.9,53,12.6c-0.6-0.4-1.1-0.7-2-0.2c-0.9,0.5-0.5,0.5-1.5,0.2c-1.1-0.2-1.3,0.2-1.5-0.1
	c-0.2-0.4-0.9-0.2-0.8-1.3c0.1-1.1,0.5-0.9-0.2-0.9c-0.7,0-1.3,0.1-1.8-0.2C44.7,9.6,43.7,9.7,43.7,9.7L43.7,9.7z M395.5,46.1
	l-1.2,1.6l-0.8,0.8l-1.6,0.9l-0.2,0.7c0,0-0.6,0.6-0.5,1c0.1,0.4,0.1,1.1,0.1,1.1s-1.1,1-1.6,1.3c-0.5,0.3-1.1,1-1.1,1
	s-0.4,0.5-0.6,0.6c-0.2,0.2-0.6,0.6-0.9,1.1c-0.3,0.5-0.6,0.8-0.8,1c-0.2,0.2-0.6,0.8-0.9,1.7c-0.2,0.9-0.9,1.9-0.9,1.9l-0.2,0.4
	c0.1,1.3,0.1,1.6,0.2,2c0.2,0.5,0.3,0.3,0.2,1.3c-0.2,1-0.2,1.4-0.3,1.9s-0.6,1.3-0.8,1.7c-0.2,0.4,0.3,1.1,0.3,1.1s0.2,1,0.1,1.3
	s0.1,0.7,0.1,0.7s0.9,0.6,1.3,0.9c0.3,0.3,0.9,0.8,0.9,1c0.1,0.2,0.7,1.3,0.8,1.6c0.1,0.2,0.7,1.1,0.9,1.3c0.2,0.2,0.9,1.1,0.9,1.1
	s1,0.8,1.3,1.1c0.2,0.3,0.9,0.5,1.2,0.7c0.2,0.2,0.8,0.2,1.1,0.4c0.3,0.2,0.9-0.2,1.3,0c0.3,0.2,1.2-0.2,1.4-0.3
	c0.2-0.2,0.8-0.7,1.2-0.5c0.4,0.2,0.6,0,0.9,0.1c0.3,0.1,0.8-0.3,1.1-0.3s1.1-0.3,1.3-0.3c0.2,0,1-0.5,1.3-0.5
	c0.3,0,0.7-0.3,1.1-0.2c0.4,0.2,0.2-0.3,0.9-0.1c0.7,0.2,0.9,0,1.2,0.2c0.2,0.2,0.5,0,0.8,0.3c0.2,0.3,0.6,0.6,0.7,0.9
	c0.1,0.3,0.5,0.6,0.5,0.6l0.5,0.1c0,0,0.6-0.5,0.8-0.2c0.2,0.3,0.9,0.2,0.9,0.2l0.7,0.8l0.2,0.3c0,0,0.5,1.3,0.4,1.7
	s-0.1,1.5-0.3,1.7c-0.2,0.2-0.4,1.3-0.4,1.3s-0.3,0.3,0.4,0.9c0.7,0.6,1.2,1.2,1.4,1.5c0.2,0.3,0.9,1.2,0.9,1.7
	c0.1,0.6,0.2,0.9,0.5,1.6s0.7,0.8,0.8,1.6c0.1,0.8,0.2,0.8,0.2,1.3c-0.1,0.6-0.3,0.6-0.1,1c0.2,0.4,0.5,1.1,0.5,1.3
	c-0.1,0.2-0.2,1.3-0.2,1.3l-0.2,0.5l-0.7,1.3l-0.5,0.7c-0.2,0.6-0.5,1.1-0.4,1.9s-0.4,0.8,0.2,1.6c0.6,0.8,0.9,1.7,1.3,2.4
	c0.4,0.7,0.6,1.4,0.7,1.9c0.1,0.5,0.4,0.6,0.5,1.3c0.2,0.6,0.2,0.9,0.2,1.3c0,0.4-0.1,1.4,0.1,1.7c0.2,0.2,0.2,0.9,0.3,1.3
	c0.1,0.3-0.2,0.4,0.2,0.9c0.5,0.6,0.8,0.9,1.1,1.3c0.3,0.4,0.2,0.2,0.5,0.8c0.2,0.6,0.5,0.9,0.6,1.3c0.1,0.5,0.2,1.7,0.4,2.2
	c0.2,0.6,0.5,1.1,0.5,1.1s0.9,0.6,1.2,0.5c0.3-0.1,0.9-0.8,1.4-0.6c0.5,0.2,0.9,0,1.3,0c0.4,0,0.8-0.5,1.2-0.5
	c0.4,0,0.9-0.6,1.3-0.5c0.3,0.2,0.7-0.2,1.1-0.6c0.4-0.4,0.6-0.7,1.3-1.3c0.7-0.6,0.6-0.6,1.1-1c0.5-0.4,0.9-1.3,1.5-1.4
	c0.5-0.2,0.7-0.7,0.9-1.1c0.2-0.4,0.2-0.6,0.5-0.9c0.2-0.3,0.1,0.1,0.5-0.9c0.4-1,0.9-1.4,1.3-1.7c0.4-0.2,0.6-0.7,0.9-0.8
	c0.2-0.1,0.6,0.2,0.5-0.5c-0.2-0.7,0-1.7-0.2-2c-0.2-0.2-0.4,0.6-0.3-0.6c0.1-1.2,0.9-2.4,0.9-2.4s1.2-1.5,1.6-1.7
	c0.4-0.2,0.5-0.5,1-0.8c0.5-0.3,1.7-1.1,1.7-1.5c0-0.4,0.5-1.4,0.5-1.7s0-0.5-0.2-1.8c-0.2-1.3,0.2-1-0.3-2.3
	c-0.5-1.3-0.5-2.8-0.9-3.2c-0.3-0.4-0.2-1.4-0.2-1.7c0-0.3,0.5-1.1,0.8-1.4c0.2-0.3,1.3-1.6,1.3-1.6s1.6-1.8,2.1-2.7
	c0.5-0.9,1.1-1.7,1.5-2c0.4-0.3,1.3-1,1.9-1.8c0.5-0.8,1.6-2.3,1.7-2.5c0.1-0.2,0.7-1,0.7-1s0.9-1,1-1.6c0.2-0.6,0.9-3.6,0.8-3.5
	c-0.2,0.2-1.1,0.3-1.4,0.4c-0.3,0.1,0.5,0.4-1.8,0.2c-2.3-0.2-3.5,0.2-3.5,0.2c-0.7-0.2-1.3,0.6-1.5-0.5c-0.2-1.1-0.4-1.7-0.9-2.5
	c-0.5-0.8-0.8-1.1-1.5-2.1c-0.7-1-0.6-0.6-1.3-1.3c-0.6-0.8-0.8-0.6-1.2-1.6c-0.4-1-0.7-0.6-1.2-2c-0.5-1.4-0.8-1.6-1-2.4
	c-0.2-0.8-0.5-1-0.7-1.7c-0.2-0.7-2-4.3-2.2-4.6c-0.2-0.2-0.6-1.5-0.5-1.3c0.1,0.2,1.2,1,1.2,1s0.6-0.2,0.9-0.2
	c0.2,0,1.2,0.9,1.2,1.2c0,0.3,1.6,1.8,2,2.9c0.4,1.1,0.9,1.9,0.9,2.2c0.1,0.3,0.9,1.6,1.2,2c0.3,0.5,1.3,1.4,1.5,1.9
	c0.2,0.5,1.6,2,1.6,3.1c0,1,0.7,2.4,0.8,2.7c0.1,0.3,1.5,0.7,1.5,0.7l1.9-0.5c0,0,2.8-1.8,3.1-1.8c0.3,0,2.8-1.2,2.8-1.2
	s1-0.9,1.7-1.5c0.7-0.6,1.5-1.6,1.6-2c0.2-0.5,0.5-0.5,1.1-1.3c0.6-0.7,1.5-1.4,0.9-1.9c-0.5-0.5-0.9-0.3-1.6-1.1
	c-0.8-0.8-0.7-0.6-1.3-1.7c-0.5-1,0.1-2.2-1.1-1c-1.2,1.2-0.7,1.5-1.9,1.7c-1.2,0.2-1.6,1-2.2,0.2c-0.5-0.8-1.1-0.3-1.4-1.5
	c-0.3-1.2-0.5-1.3-0.6-1.7c-0.1-0.5,0-0.5-0.6-1.7c-0.6-1.2-0.2-3,0.2-2c0.4,1,1,1.2,2,1.9c1,0.7,1.5,1.3,2.4,1.3
	c0.9,0.1,1.7,0,1.9,0.2c0.2,0.2,0.3-0.1,0.7,0.1c0.4,0.2,0.5-0.2,0.7,0.4c0.2,0.6,1,0.7,1.4,1.1c0.4,0.4,0.4,0.2,1.4,0.4
	c1,0.2,2.4,0.2,2.4,0.2l1.5-0.1l1.7,0.2c0,0,1.3,0.7,1.6,0.7s0.4,0.9,1.2,1.3c0.8,0.5,0.9,0.5,1.4,1.1c0.5,0.6,0.4,0.8,1,1.3
	c0.6,0.5,1.6-0.1,1.8-0.3c0.2-0.2,0.9-0.6,0.8,0c-0.2,0.6,0.8,0.4,0.5,1.9c-0.2,1.5-0.4,1.1,0,2.1c0.4,1,2.1,4.2,2.2,5.1
	c0.1,0.9,0.5,0.6,0.6,1.5c0.1,0.9,0.5,1.2,0.5,1.8c0,0.6,0.5,0.8,0.6,1.3c0.1,0.5,0.9,0.1,1.2,0c0.2-0.1,1.3-1.1,1.3-1.1
	s0.5-0.2,0.4-0.9c-0.1-0.8,0-0.6,0-1.8s-0.5-1.2-0.2-2.4c0.2-1.2,0.9-1.9,1-2.4c0.2-0.6,0.8-1.5,1.1-1.6c0.3-0.1,2-0.9,2.4-1.5
	c0.4-0.5,1-1.2,1.6-1.8c0.6-0.6,1.7-1.4,2-1.2c0.2,0.2,0.2,0.2,0.5,0.2c0.4,0,1.1,0.3,1.6,0.4c0.5,0.1,1.6,1.4,1.9,2.1
	c0.2,0.7,0.1,0.5,0.9,1.6c0.9,1,1.6,0.4,1.6,1.7c0,1.3,0,1.2,0.4,1.7c0.4,0.5,0.9-0.9,1.3-0.7c0.5,0.2,0.5-0.2,0.9,1.1
	c0.4,1.3,0.6,1.3,0.7,2.5c0.1,1.3-0.1,0.1-0.1,1.1c0,1-0.1,1.1,0.1,2c0.2,0.9,0.7,1.3,0.6,1.4c0,0,0.5-1.3,0.3-2.3
	c-0.2-0.9,0-2.3,0.4-2.7c0.4-0.4,0.8-0.8,1.1,0.2c0.3,1,0.5,0.2,1.2,1.4c0.7,1.2,1.3,0.9,1.4,1.5c0.1,0.6,0.5,0.6,1,1.1
	c0.5,0.5,1-0.1,1.6-0.6c0.6-0.5,2.4-2.2,2.4-2.9c0.1-0.7,0.8-0.6-0.5-2.4c-1.3-1.8-1.3-2.4-2.6-3.5c-1.3-1.1-2.1-1.2-1.1-2.6
	c1-1.4,1.5-2.4,2.1-2c0.6,0.4,1.7,0.3,1.7,1.9c0,1.6-0.3,3.3,0.8,1.4c1.1-1.9,1.6-3,1.3-2.7c-0.3,0.3,0.7-0.6,0.7-0.6s0.1-0.7,1.4-1
	c1.3-0.3,1.7-0.5,2.2-0.7c0.5-0.2,1.8-1.8,2-2.5c0.2-0.7,0.9-2,0.7-2.5s-0.9-3.2-1.1-3.1c-0.2,0.1-0.1,0.1-1.1-1
	c-1-1.1-1.7-1.9-1.9-2.4s-0.5-0.5-0.1-1.2c0.5-0.6,0.7-0.5,0.8-1.1s0.7-1-0.5-0.6c-1.2,0.4-0.3,0.2-1.3,0.1c-1-0.1-3.7,0.5-2.4-1.1
	c1.3-1.7,1.7-2.7,2-2.7s1.4-1.3,1.5-0.1c0.1,1.3,0.5,0.9,0.6,1.7c0.1,0.8,1.7-0.9,1.7-0.9s0.5,0.2,0.9,0.5c0.4,0.4,0.4,1.7,0.4,1.7
	s-0.3-0.4,0.5,0.2s1.8,0.3,1.8,1.7c0,1.3,0,1.4,0.5,1.7c0.5,0.3,1.1,0.2,1.6-0.2c0.5-0.4,1.3-1.8,1.3-1.8s0.1-0.5-1.2-1.3
	c-1.3-0.8-2-1.3-2.5-1.7c-0.5-0.4-0.3-1.6,0.2-2c0.5-0.5,0.7-0.7,0.5-1.3c-0.2-0.6,0.2-1.1,1.4-1c1.2,0.1,1.4-0.1,1.4-0.1
	s0.2,0.2,0.2-0.3c0-0.5,1.5-2.7,1.1-2.7c-0.4,0,0.1-0.5-0.2-1.4c-0.2-0.9,0.8-2.2-0.1-2.8c-0.9-0.6-1.1-0.9-1.7-1.9
	c-0.5-0.9-0.5-1.1-2.5-1.3c-2-0.2-3,0.5-3.5-0.2c-0.5-0.6-0.7,0.9-1-0.9c-0.3-1.9,0.5-3.1,0.5-3.1s1.3-0.8,1.6-1.3
	c0.3-0.5,1.6-0.8,2.6-0.4c1,0.4,2.5,0.3,3.8,0.5c1.3,0.2,1.2,1,1.8,0c0.6-1,0-1.5,0.5-2c0.5-0.5,1-1.4,1.4-0.9
	c0.4,0.5,1.2,1.1,1.8,0.4s0.9-0.8,0.9-0.8l0.3,0.3c0,0,0.7-0.4,0.7,0.3s0.7,1.5,0.3,2c-0.4,0.5-0.9,0.5-0.9,1.8c0,1.3,0,1.1,0.9,2.2
	c0.9,1.1,1.4,0.2,1.6,1.3c0.2,1.2,0.3,0.9,1.2,1.7c0.9,0.8,0.7,0.8,1.3,1.3c0.6,0.5,0.9,0.9,0.9,0.2c0-0.8,0.1-1.2,0-1.9
	c-0.1-0.7,0.6-1.3,0.2-2.4c-0.5-1.2-0.1-1.1-1-2c-0.9-0.9-1.6,0.2-1.9-1.1c-0.3-1.3,1.5-1.8,2-2c0.5-0.2,1.2-1.1,1.3-0.5
	c0.2,0.6-1.2,2.9,1.1,0.5c2.3-2.4,1.3-1.4,1.3-1.4s1.2-0.2,1.4,0c0.2,0.2,0.9-0.7,0.6-0.6c-0.2,0.1-2.5-1.3-2.5-1.3l-1.7-0.9
	c0,0,0.5-0.4,0.9-0.3c0.4,0.1,0.5-0.8,0.9-0.9c0.4-0.1,3.1,0.6,3.6,0.9c0.5,0.3,2.5,0.4,2.3,0.2s-1.5-1.1-1.6-1.4
	c-0.1-0.3-2.8-0.9-3.7-0.9c-0.9,0.1-1.7,0.3-2.4,0.1c-0.7-0.2-1.7-0.9-2.3-0.9s-7.5-1.3-7.8-1.3c-0.3,0.1-0.8,1.6-1,1.3
	c-0.2-0.2-0.6-0.2-1.7-0.6c-1.1-0.3-2.6-0.6-4.6-0.7c-2-0.2-3.3,0.2-3.8-0.5s-1.7-0.4-3.1-0.5c-1.3-0.1-2.9,0-3.6,0
	c-0.7,0-2.4-0.1-2.7-0.2c-0.4-0.1-0.9-0.6-1.3-0.7c-0.5-0.1-0.4-0.2-1.3-0.4c-0.9-0.2-0.9-1.2-1.2-0.3c-0.3,0.9-0.2,0.6-0.6,0.9
	c-0.5,0.3-0.9,0.9-1.3,0.9c-0.3,0-1.6,0.1-1.8-0.1c-0.2-0.2-0.6-0.3-1.4-0.3c-0.8,0-0.8,0.1-1.8-0.1c-1-0.2-1.8-0.1-2.7-0.6
	c-0.9-0.5-0.9-0.8-1.7-0.7c-0.8,0.1-0.8-0.2-1.9-0.2c-1.1,0-2.4,0.6-3.1,0.7c-0.7,0.1-2.3-0.1-2.8-0.3c-0.5-0.2-0.7-0.8-2.8-0.6
	c-2,0.2-3.2,0.2-2.8-0.4c0.4-0.6,0.9-1.3,1.1-1.3c0.2-0.1,0.8-0.5,0.4-0.6c-0.4-0.2-0.8-0.4-1.7-0.5c-0.9-0.1-0.9,0.3-2.3,0.2
	s0.8-0.6-2.1-0.5c-2.9,0.1-3.6,0.3-3.9,0.3c-0.3,0-0.7-0.6-1.5,0.3c-0.8,0.9-1.9,1.5-3.5,1.6c-1.6,0.1-1.6-0.2-3.1,0.4
	c-1.5,0.6-2.4-0.2-2.1,1.1c0.3,1.3,0.7,1.7,0.7,2c0,0.2-0.7,1.8-1.6,0.9c-0.9-0.9-2.4-4.6-1.7-2.1c0.7,2.5,2.3,3.4,0.8,3.8
	c-1.5,0.4-1.3-0.2-1.6-0.3c-0.2-0.2,0-1.3-0.1-1.9c-0.1-0.6-0.2-1-0.5-1.3c-0.3-0.3-0.2-0.8-0.9-0.9c-0.6-0.2-0.1-0.5-1.1-0.5
	c-1,0-1.9-0.6-1.6,0.8c0.2,1.4,0.5,0.5,1.1,1.8c0.6,1.3,1.8,0.4,0.9,1.3c-0.9,0.9-3.1,0.6-3.7,0.2s-0.4,0.2-1.4-0.6
	c-1-0.7-0.7-1.3-1.9-0.7c-1.2,0.6-1.6,1.6-2,1.2c-0.5-0.4-1.6,0.6-2,0.1c-0.4-0.5-2-0.5-2.3,0s-1.3,0.4-2.6,1
	c-1.3,0.6-0.9,0.1-2.6,1.4c-1.6,1.3-2.6,2.4-3.1,1.6c-0.5-0.9-3.5-2.4-2.4-2.6c1.2-0.2,1.7-0.7,2.4-0.2c0.6,0.6,1.6,0.4,1.8,0
	c0.2-0.4,0.9-0.8-0.1-1.3c-0.9-0.5-1-0.2-2.5-0.7c-1.5-0.6,0-0.4-2-0.7c-2-0.3-2.9-0.5-3.5-0.6c-0.5-0.2-1.3,0-2.1-0.1
	c-0.8-0.1-1.3-0.2-2-0.2c-0.7,0.1-1.1-0.1-2,0.6c-0.9,0.7-1.6,1-2.3,1.6c-0.6,0.6-2.3,1.6-2.7,2c-0.5,0.4-2.1,1.7-2.3,2.1
	s0.2,0.9-0.5,1.2c-0.6,0.3-1.3,0.3-1.7,0.4c-0.5,0.1,0-0.7-0.5,0.1c-0.5,0.8-0.3,3.6,0.1,3.2c0.4-0.4,0.2-1.7,1.9-0.5s2.8,1,2.8,2.1
	c-0.1,1.1,1.2,1,1.3,1.3c0.2,0.2,0.9-0.3,0.9-0.3s1.7-1.1,1.7-1.7c0-0.5,1.1-1.8,1.1-1.8s-0.8-0.4-0.8-1.2c0-0.8,0.2-1,0.4-1.8
	c0.2-0.8-0.9,0,1.5-1.5c2.4-1.5,2.5-0.5,2.5-0.5s0.3,0.3-0.1,0.8c-0.4,0.5-1.1,1.7-1.3,1.9c-0.2,0.2,0.7,1.4,1.1,1.4
	s1.2-0.3,1.6-0.2c0.5,0.1,1.3-0.2,1.5-0.1c0.2,0.2,0.8,0.6,0.4,1c-0.4,0.4-1.3,0.9-1.9,0.7c-0.6-0.2-1.6-1.3-1,0.3
	c0.5,1.6-0.1,2-0.5,1.9c-0.5-0.1-1.5-0.9-1.3,0.3c0.2,1.2-1,2-1.3,2c-0.2,0-0.7-0.1-0.7-0.1s-0.7-0.1-1.1-0.1
	c-0.4,0-1.2,0.4-1.4,0.7c-0.2,0.3-0.5,0.1-0.9,0.1s0-0.5-0.8-0.6c-0.8-0.2-1.3-0.3-1.7,0c-0.5,0.3-1.2,0.5-1.5,0.2s0.2-0.8-0.5-0.5
	c-0.6,0.3-1.1,1.2-1.3,1.3c-0.2,0.1,0.7,0-0.2,0.1c-0.9,0.1-1.3,0.3-1.8,0.5c-0.5,0.2,0.2,1.1-0.7,1.4c-0.9,0.3-0.2-0.4-1.1,0.3
	c-0.9,0.7-1,1.3-1.3,1.4c-0.3,0.1-0.2,0.2-0.9,0.3c-0.7,0.1-0.6,0.2-1,0.2c-0.4,0.1,0.1,0.2-0.8,0.1c-0.9-0.2-1.5,0.2-1.3,0.5
	c0.2,0.3,3.1,1.2,0.9,1.1c-2.2-0.1-1.5,0.3-1,0.6c0.5,0.3,0.7,0.6,0.9,0.7c0.2,0.1,0.6,1,0.6,1s0.6-0.1,0.2,0.5
	c-0.4,0.5,0.2,0.7-0.2,1.4c-0.4,0.7-0.4,0.2-0.7,0.4s-0.8,0.7-1.6,0.2c-0.9-0.5-1.5-0.7-2.5-0.8c-1-0.1-0.3-0.2-1,0.3
	c-0.7,0.5-0.9,1.2-0.8,1.9c0.1,0.7,0.2,1.7-0.1,2.1c-0.2,0.5-0.2,0.9-0.1,1.7c0.2,0.7,0.6,1,0.6,1s1.1,0.2,1.3,0.2
	c0.2,0.1,0.7-0.2,1.3,0.2c0.6,0.4,1.3,0.5,1.6,0.1c0.4-0.5,2-1,2.4-1.5c0.5-0.5,0.8-0.6,0.5-1.1c-0.2-0.5,0.5-1.7,0.9-1.9
	c0.4-0.2,1.3-0.5,1.3-0.5l0.9-1.4c0,0,0.8-0.9,1.2-0.8c0.4,0.1,2.6,0.9,2.4-0.2c-0.2-1,0.2-1.3,0.4-0.9c0.2,0.4,0.9,0.2,0.9,0.2
	s0.3-0.2,0.5,0.1c0.2,0.2,0.5,1.3,1,1.5c0.5,0.2,0.9,0.5,1.2,0.6c0.3,0.2,0.6,0,1.3,0.5s1.3,0.9,1.3,1.1c0.1,0.2,0.6,0.8,0.6,0.8
	s0.5,0.2,0.4,0.5c-0.2,0.3-0.9,1.3-1.3,1.4s-1.4-0.2-1,0.2c0.4,0.3,0.9,0.7,1.2,0.5c0.2-0.2,1.7-1.8,1.7-1.8s-0.1,0.1,0-0.4
	c0.1-0.5,0-1,0.4-0.8c0.4,0.2,0.6,0.5,0.8,0.2c0.2-0.3,0.3-0.2-0.1-0.4c-0.4-0.2-1.3-1.6-1.8-1.7c-0.5-0.1-1.6-0.9-1.6-0.9
	s-0.2-0.2-0.8-0.9c-0.5-0.6-0.7-0.5-0.9-1c-0.2-0.6-0.6-1.3,0.2-1.1c0.9,0.2,1.4,0.7,2.2,1.2s0.6,0.6,1.3,1.1
	c0.7,0.5,0.8,0.9,1.3,0.9c0.5-0.1,1.2,0.3,1.2,1s0.2,1.5,0.3,1.7c0.2,0.2,0.6,0.5,0.8,0.8c0.2,0.3,0.5,1.1,0.7,1.4
	c0.2,0.3,0.5,0.5,0.7,0.9c0.2,0.4,0.3-0.1,0.5,0.1c0.2,0.2,0.5,0.1,0.5-0.2c0-0.3,0.1-0.9,0.1-0.9s1.1-0.3,0.8-0.5
	c-0.3-0.2-1.3-1.1-1.2-1.4c0.1-0.3,0-0.9,0.4-0.9c0.4,0.1,0.8,0.8,1.6,0.2c0.9-0.6,1.9-0.9,1.6,0s0.1,1.1,0,2.1
	c-0.1,1,0.3,0.7,0.9,1.3c0.5,0.5,0.9,0.6,1.3,0.8c0.4,0.2,1,0.1,1.6,0.2c0.6,0.1,1-0.2,1.6-0.1c0.5,0.2,1.8-0.1,2,0.1
	c0.2,0.2,1.2-0.3,1.3,0.2c0.1,0.5,0.4-0.1,0.2,1.2c-0.2,1.3-0.5,2.1-0.5,2.1c-0.9,1.7-1.2,2-1.6,2.1c-0.4,0.1-0.6,0.3-1.3,0.2
	c-0.7-0.1-1.6,0-2.6-0.2c-1-0.2-2.9,0.2-3.7-0.2c-0.8-0.5-1.9-0.1-2.4-0.6c-0.5-0.5-1.3-0.5-1.6-0.8c-0.3-0.3-0.5-1.2-0.5,0.1
	c0,1.3-0.7,1.3-0.9,2c-0.2,0.6,0.2,0.3-0.6,0.2c-0.9-0.1-1.1,0.4-2.4-0.5c-1.3-0.9-1.9-0.9-2.5-1.3c-0.6-0.4-1.3,0.7-1.9-0.5
	c-0.6-1.3-1.5-0.2-1.6-1.3c-0.1-1,0-0.9,0.1-1.6c0.1-0.6,0.9-1.2,0.5-1.4s-0.1-0.6-0.6-0.4c-0.5,0.2-1.3,0.3-2,0.5
	c-0.6,0.2,1.4,0-1.6,0.2c-3.1,0.2-3.9,0.5-3.9,0.5s-0.2-0.2-0.6,0.2s-0.9,0.8-1.5,0.5c-0.5-0.2-0.9-0.2-1.3-0.1
	c-0.5,0.1-0.8-0.4-1.3,0c-0.5,0.4-1.2,0.5-1.4,0.4C395.9,46.7,395.5,46.1,395.5,46.1L395.5,46.1z M448,97.8
	c-0.2,0.9-1.1,2.1-1.1,2.1l-1.6,0.8c0,0-0.5,0.5-0.9,0.6c-0.3,0.1-1.1,0.5-1.1,0.5s-0.7-0.2-0.5,0.6s0.3,1.6,0.2,1.8
	c-0.1,0.2-0.1,0.7-0.1,1.3c0,0.6-0.2,1.4-0.6,1.6c-0.4,0.2-0.8,0.3-0.7,0.9c0.1,0.6,0.1,2.2,0.1,2.2l1,1.6c0,0,0.3-0.2,0.9-0.2
	s1.3-0.6,1.3-0.6s0.7,0.2,0.6-0.7c-0.1-0.9,0.3-1.9,0.2-2.1c-0.1-0.2,0.7-1.3,0.7-1.5s0.8-1.3,0.8-1.7s0.5-1,0.6-1.5
	c0.1-0.5,0.2-1.6,0.3-1.9c0.2-0.3,0.2-0.6,0.2-0.9v-0.9L448,97.8L448,97.8z M509.5,108.5c-0.2,0.3-0.4,3.7-0.5,4.1
	c-0.2,0.4-0.5,2.4-0.3,2.9c0.2,0.5,0.4,2.2,0.2,2.8c-0.2,0.6,0.1,2.3-0.3,2.2c-0.4-0.1-0.5,0.1-0.5,0.3c0,0.2,0.5,0.7,0.5,0.7
	s0.9,0,1.3-0.1c0.4-0.1,1.2-0.5,1.8-0.5c0.6,0,1-0.5,1.6-0.5s1.7-0.4,2-0.2c0.3,0.2,0.8-0.9,1.3-0.7s1.7-0.6,2.3-0.6
	c0.5,0,0.8-0.9,1.4-0.7c0.6,0.2,1.8-0.3,2.4-0.1c0.5,0.2,1.4-0.8,1.8,0c0.4,0.8,1.6,1.1,1.6,1.5s-0.1,1.3-0.1,1.3l0.9-0.1
	c0,0,1.5-0.9,1.7-0.9s0.8-0.8,0.8-0.4s-0.5,1.3-0.6,1.7c-0.2,0.4,0.2,0.9,0.2,0.9s0.8,0.4,0.5,1.1c-0.3,0.7,0.1,0.6,0,1.1
	c-0.1,0.6,0,0.3,0.3,0.6c0.3,0.3,0.9,0.9,1.3,0.8c0.5-0.1,0.6-0.6,1-0.3c0.4,0.2,1.2,0.1,1.4,0.4c0.2,0.3-1.5,1.1,1.5-0.2
	c3-1.3,3.3-1.7,3.7-2.1s0.9-0.9,1.2-1.3c0.3-0.3,0.1-0.2,1-0.9c0.9-0.7,0.9-0.4,1.8-1.7c0.9-1.3,1.5-1.8,1.7-2
	c0.2-0.2,0.5-0.3,0.5-1.3c0.1-0.9,0.7-1.8,0.7-2.1s0.2-0.8,0.2-1.3c-0.1-0.6,0.3-1.3-0.2-2.1c-0.5-0.8,0.2-1.1-0.5-1.4
	c-0.7-0.3-1.2-0.2-1.3-0.7c-0.2-0.6-0.8-0.5-1-2c-0.2-1.5-1.2-1.7-1.2-1.7s-0.9-0.4-0.7-0.6c0.2-0.2,0.3-1.3,0.2-1.6
	c-0.1-0.3-0.1-1-0.3-1.5c-0.2-0.5-0.4-1.1-0.6-1.7c-0.2-0.6-0.6-0.7-0.8-1.3c-0.2-0.6-0.4-0.9-0.5-1c-0.1-0.2-0.2-0.9-0.4-0.1
	c-0.2,0.9-0.5,2.5-0.5,2.5s-0.6,1.3-0.9,1.7c-0.2,0.4-0.5,1.4-0.9,1.3c-0.4-0.1-0.6,0.4-0.9,0.3c-0.3-0.1-0.8,0.1-1-0.2
	c-0.2-0.2-0.9-0.9-1.2-0.9c-0.3-0.1-0.5-0.7-0.8-0.7s-0.6-0.6-0.5-0.9c0.1-0.3,0.2-1,0.2-1.3c0.1-0.3,0.5-1,0.5-1s0-0.5-0.4-0.5
	c-0.4,0-0.5,0-1.3-0.1c-0.9-0.1-1.1-0.2-1.4-0.2c-0.3,0,0.3-0.2-0.5,0.1c-0.9,0.2-1.3,0.9-1.8,1.4c-0.5,0.6-0.1,0.4-0.5,0.6
	c-0.5,0.2-0.4-0.4-0.7,0.5c-0.3,0.9,0.2,1.1-0.1,1.3c-0.2,0.2-1.9-0.6-1.9-0.6s0.4-0.1,0.1-0.5c-0.3-0.4-0.6-0.9-1.1-0.7
	c-0.5,0.2-0.9,0.4-1.2,0.8c-0.3,0.4-0.3,0.7-0.5,1c-0.2,0.3-0.9,0.3-0.9,0.6c-0.1,0.3-0.1,1.1-0.3,1.2c-0.2,0.1-0.3-0.3-0.5-0.4
	c-0.2-0.1-0.2-0.7-0.3-0.3c-0.2,0.4-0.3,0.3-0.5,0.9c-0.2,0.6-0.3,1.2-0.5,1.3c-0.2,0.1,0,0.2-0.7,0.6c-0.7,0.4-0.9,0.4-1.9,0.9
	s-0.8,0.5-1.5,0.6c-0.7,0.1-0.9,0.3-1.3,0.4c-0.5,0.1-0.8,0.2-1.3,0.6c-0.5,0.5-0.9,0.6-1.2,0.7
	C509.8,108.1,509.5,108.5,509.5,108.5L509.5,108.5z M514.1,77.4c-0.3,0.5-1.3,1.9-1.7,2c-0.4,0.1-0.8,0.5-1.1,0.4
	c-0.3-0.1-1,0-1.3,1c-0.2,1-0.6,1.6-0.9,1.5c-0.2-0.1,0.4,1.5-0.9,0.9c-1.3-0.6-0.9,0.6-1,0.9c-0.2,0.3,0.2,1.2,0.3,1.5
	c0.1,0.3,0.3,0.9,0.6,1.3c0.3,0.5,0.5,1,1.1,0.9c0.5-0.2,2.3,0,2.3,0s0.6,0.2,1,0.2c0.4,0,0.5-0.2,0.7-0.2s0.7-0.8,0.6-0.9
	c-0.1-0.1-0.3-0.3,0.2-0.8c0.5-0.5,1-0.6,1.1-1.2c0.1-0.6-0.2-0.6,0.1-0.9c0.2-0.3,0.8-0.2,0.6-0.6s0.2-0.2-0.2-0.9
	s-0.7-0.9-0.4-1.7c0.3-0.8,0.6-0.9,0.5-1.4s0.4-0.6-0.2-1.2s-0.8-0.7-1.2-0.9L514.1,77.4L514.1,77.4z M529.5,85.3
	c0.3-0.1,1.4-0.9,1.5,0.6c0.1,1.4,0.2,1,0.6,1.8c0.5,0.8,0.8,1,1.3,0.6c0.5-0.4,1.2-0.4,1.3-1.1c0.2-0.7,0.2-0.7,0.6-0.7
	c0.5,0,0.6-0.1,0.9,0.2c0.2,0.3,0.4,0,1.4,0.6c1,0.6,1.9,0.4,2.5,0.9c0.6,0.6,0.9,0.5,1.8,0.8c0.9,0.3,0.5-0.2,1.3,0.7
	s0.5,1.1,0.9,1.5c0.4,0.4,0.7-0.3,0.5,0.6c-0.2,0.9-1.3,0,0.4,1.3c1.6,1.3,1.9,1.6,2.4,2c0.5,0.4,0.9,0.9,0.5,0.9
	c-0.5,0-2,0-2.1-0.2s-0.9-0.4-1.3-0.9c-0.5-0.6-1.5-0.9-1.7-1.4c-0.2-0.5-0.6-0.6-0.9-0.6c-0.4,0-0.8,0.5-1.3,1
	c-0.5,0.6-0.3-0.3-1-0.1c-0.7,0.2-1.5-0.1-1.9-0.4c-0.4-0.3-0.3-0.8-0.9-0.6c-0.6,0.2-1,0.1-0.8-0.4c0.2-0.5,0.1-1.1,0.1-1.1
	s0.2-0.8-0.3-0.9c-0.5-0.2-0.5-0.7-1.1-0.9c-0.5-0.2-1.4-0.6-1.4-0.6s-0.1,0-0.3-0.1c-0.2-0.1-0.2-0.1-0.9-0.2
	c-0.6-0.2-1.1,0-1.4-0.4s-0.2-0.9-0.2-0.9s1.3,0.2,0-0.8l-1.3-0.9c0,0,0.2-0.1,0.1-0.2C528.7,85.1,529.5,85.3,529.5,85.3L529.5,85.3
	z M494.2,78.7c0,0,0.4,0.4,1,0.3c0.6-0.1,1.1,1.3,1.5,1.7c0.4,0.5,0.6,0.7,1.5,1.3c0.9,0.6,0.8-0.5,2,1.2s0.6,0.6,1.2,1.7
	c0.5,1,0.9,1.6,1.2,1.8c0.3,0.2,0.5,0.9,0.6,1.1s0.6,0.9,0.6,1.2s0.2,0.9-0.3,1.4c-0.5,0.6-0.9,0.6-0.9,0.6s-0.9-0.5-1.3-0.9
	c-0.3-0.5-0.7-0.9-1.3-1.8c-0.5-0.9-1.2-2-1.5-2.4c-0.3-0.5-0.8-0.9-1-1.4s-0.9-1.9-1.2-2c-0.3-0.2-0.4-0.6-0.9-1.2s-0.5-1-0.7-1.3
	c-0.2-0.3-0.8-1-0.8-1L494.2,78.7L494.2,78.7z M341.5,140.1c-0.5-0.3-1.7-0.9-2.1-1.2c-0.4-0.3-1.6-2-1.6-2l-0.9-1.7
	c0,0-1-1.3-0.8-1.7s0.7-0.8,0.7-1s0.5-0.9,0.1-1.1c-0.4-0.2-0.4-0.3-0.6-1c-0.2-0.7-0.2-1.3-0.5-1.5c-0.3-0.2-0.5-1.2-0.9-1.3
	c-0.3-0.1-0.6-0.6-0.6-0.6l-0.5-6.4c0,0-0.2-2.9-0.3-3.5c-0.2-0.6,0.2-2-0.2-3.1c-0.4-1.2,0.1-2.6-0.2-3.1c-0.2-0.5,0.2-1.8-0.1-3.1
	c-0.2-1.3,0.9-2.8,0-3.3c-0.9-0.5-0.2-1.2-1-1.2c-0.8,0-1.3-0.4-2-0.9c-0.7-0.6-2-1.6-2.4-2c-0.4-0.4-1.6-1.4-2-1.7
	c-0.4-0.3-0.8-1.7-1.1-2c-0.3-0.4-0.5-1.6-0.9-2.3c-0.5-0.7-1.1-1.9-1.3-2.1c-0.2-0.2-1.9-2.3-1.9-2.3l0.2-1.3c0,0,1.2-0.7,1-0.9
	s0.1-0.5-0.5-0.9s-0.5-1.3,0-1.7c0.5-0.4,1.2-1.7,1.2-1.7l1.2-2c0,0,0.9-1,0.9-1.7c0-0.7,1.3-1.2,0.5-1.8c-0.8-0.6-0.4-1.2-0.6-1.7
	c-0.2-0.5-0.1-0.8,0.6-1.3c0.7-0.5,2-2.2,2-2.2s0.9-0.2,1.2-0.2c0.2,0,0.6-2.5,1.3-0.9c0.7,1.7,0.9,0.8,0.7,2
	c-0.2,1.2,0.3,0.9,0.6,0.6c0.3-0.3-0.2,0.2,0.5-1.2c0.6-1.4,0.4-1.9,0.8-1.5c0.4,0.4,0.5,0.5,1.3,0.7s0.9,0.2,1.2,0.6
	c0.2,0.5,0.2-0.2,1.5,0.1c1.3,0.2,3.2-0.5,3,0.3c-0.2,0.8-0.7-0.1,0.4,0.8c1.1,0.9,1.3,1,1.9,1.2c0.6,0.2,1.2,0.1,2.1,1
	c0.9,0.9,1.2,1,1.4,1.5c0.2,0.5,0.6,0.2,1,0.6c0.4,0.5,0.9,0.5,1.5,0.5c0.5,0,0-0.5,0.9,0.2c0.9,0.6,1.5,0.7,1.9,2
	c0.4,1.3,1.2,1.2,0.5,2.4c-0.6,1.3-1.9,1.8-1.3,1.7c0.5-0.1,1.6-0.6,1.9-0.5c0.3,0.1,0.5-0.2,0.9,0c0.5,0.2,0.5-0.3,0.5,0.2
	c-0.1,0.6-0.1,0-0.1,0.6c0,0.6-0.2-0.6,0.8-0.3c0.9,0.2,0.4-0.5,1.5,0.6c1.1,1,1.1,0.7,1.5,1.3c0.4,0.6,0.8-0.3,1-0.1
	c0.2,0.2,0.9,0.1,1.6,0.2c0.7,0.2,0.2-0.5,1.3,0.2c1.1,0.7,2.2,0.5,2.4,1.1c0.2,0.6,0.9,0.4,1.2,0.8c0.3,0.4,0.5-0.2,0.8,0.4
	c0.3,0.6,1.3,0.4,1.1,0.9c-0.2,0.6,0.2,0.2,0.1,1c-0.2,0.8-0.7,2-1.2,2.4c-0.5,0.3-0.5,0.7-0.8,1.1c-0.3,0.4-0.2-0.4-0.6,0.7
	c-0.4,1.1-0.3,1.3-0.6,2.3c-0.3,1-0.1,0-0.3,1c-0.2,1-0.1,1.7-0.3,2.8c-0.2,1.2-0.2,1.2-0.3,2c-0.2,0.9,0.4-0.4-0.3,1.4
	c-0.7,1.8-0.8,1.7-1,2.5c-0.2,0.8,0.1,0.2-0.8,0.6c-0.9,0.5-0.4,0.3-1.4,0.6c-1,0.3-2.3,0.6-2.7,0.7c-0.4,0.1-2,0.6-1.5,1.5
	c0.5,0.9,0.5,1.1,0,2.3c-0.5,1.2-1.2,1.6-1.2,2.1s-0.3,1.1-0.4,1.5c-0.1,0.4,0.7-0.4-0.2,0.8s-1,0.9-1.3,1.6c-0.3,0.7,0,0.2-0.3,0.7
	c-0.3,0.6-1.1,0.8-1.1,0.8s0.1,0.4-0.2,0.2c-0.3-0.2-0.2,0.1-1.4-0.2s-1.3-1.1-1.5-0.6c-0.2,0.6,0.1,0.9,0.8,1.4
	c0.7,0.6,1.9,0.7,1.6,1.3c-0.3,0.6-0.3,0.6-0.5,0.9c-0.2,0.3,0.3,0.1-0.2,0.3c-0.5,0.2-0.9,1.3-1.1,1.3c-0.2,0-0.4,0.4-0.7,0.2
	c-0.3-0.2-1.1-0.7-1.3-0.4c-0.2,0.3-0.5-0.4-0.4,0.7c0.1,1.1,0.2,1.7-0.2,2c-0.4,0.2-1.3,0-1.3,0l-0.2-0.4l-0.5,0.2
	c0,0-0.2,0.9,0.2,1.1c0.4,0.2,0.3,0.3,0.7,0.8c0.4,0.5,0.2,1.3,0.2,1.3s0,0.2-0.4,0.6c-0.4,0.4-0.5,0.7-0.6,0.9
	c-0.1,0.2-0.5,1.3,0.2,1.2s1.3-0.5,1.3,0.8c0,1.3,0.3,0.9-0.1,1.8c-0.4,0.9-0.7,0.9-0.8,1.7c-0.1,0.8,0.1,0.9,0.2,1.3
	c0.2,0.5,0.5,0.2,0.2,0.5C342.7,140.3,341.5,140.1,341.5,140.1L341.5,140.1z M321.2,76.1l-0.5-0.8c0,0-0.2-0.5-0.6-0.6
	c-0.4-0.1-1.3-1.1-1.3-1.1s-0.4-0.3-0.4-0.9c0-0.6-0.3-1.4-0.1-2.4c0.2-0.9,0.3-2.1,0.2-2.4c-0.1-0.3,0.4-0.4-0.2-0.7
	c-0.5-0.3-1.6-0.4-2.4-0.4c-0.7,0-1.6,0.2-1.7,0.3c-0.2,0.1,0.9-2.4,1-2.8c0.2-0.4,0.9-2.1,0.9-2.4c0-0.2,0.2-0.3-0.2-0.6
	c-0.5-0.3-1.3-0.5-1.7-0.2c-0.5,0.2-0.4-0.3-0.8,0.6s-0.8,2-1.3,2.1c-0.5,0.2-1.4,0.6-1.4,0.6s-1.2-0.1-1.6-0.2
	c-0.4-0.1-2-0.9-2.4-1.5c-0.3-0.5-0.5-1.7-0.5-2.3c0-0.6,0.9-2.2,0.8-2.6c-0.1-0.4,0.9-2,0.8-2.2c-0.1-0.2,0.2-1,0.4-1.3
	c0.2-0.3,1.4-0.7,1.7-1c0.3-0.3,0.9-0.7,1.4-0.9c0.5-0.2,1-0.3,1.4-0.3s1.4-0.9,1.6,0c0.2,0.9,0.9,0.5,1.3,0.6
	c0.4,0.1,0.5,0.5,1.1-0.6c0.6-1,1.3-1.3,1.3-1.1c0,0.2,1-0.1,1.2,0.2c0.2,0.2,0.5-0.2,1,0.3c0.5,0.5,1.3,0.6,1.3,0.8
	c-0.1,0.2,0.3,0.2,0.3,0.5c0,0.2,0.3-0.5,0.3,0.9c0,1.4,0.4,2.3,0.4,2.3s0.5,1.2,0.8,0.9c0.2-0.2,0.7-0.9,0.7-0.9s0.8-0.5,0.2-2.1
	c-0.5-1.7-0.2-2.1-0.3-2.7c-0.2-0.5-0.2-0.9,0.8-1.6c0.9-0.7,3.2-2.3,3.8-2.6c0.5-0.3,1.8-1.2,1.8-1.2s0.5-0.2,0.5-0.9
	c0.1-0.6,1.6-1.7,1.6-2c0.1-0.3,1.1-1.1,1.1-1.1s1.1-0.6,1-1c-0.1-0.4,1.4-1.1,1.6-1.1c0.2,0,1.5,0.4,1.5-0.3c0-0.7,0-0.9,0.8-1.5
	c0.8-0.6,1.8-1.6,2.2-1.6c0.4,0,1.7-0.7,2.3-0.9c0.5-0.2,2.3-0.9,0.7,0c-1.6,0.9-0.5,0.4-0.9,1.2c-0.3,0.8-0.5,1.8,0.9,0.6
	c1.5-1.2,1.4-1.4,2-1.5c0.5-0.1,0.2,0.2,1.3-0.2c1.2-0.4,1.3-0.5,1.3-0.5s0.5-0.5,0.2-0.7c-0.3-0.2,0.3-0.5-0.9-0.1
	c-1.2,0.5-1.1,0.5-1.9,0.3c-0.8-0.2-2-0.2-1.1-0.9c0.9-0.8,2-1,1.3-1.3c-0.7-0.3-2.5,0.1-2.7,0.2c-0.2,0.1-0.8-0.1-1.3,0
	c-0.5,0.1-0.3-0.6,0-0.8c0.3-0.2,1.3-0.6,2.6-0.9c1.3-0.3,4.3-0.4,5-0.4s1.6,0.2,2.2-0.2s1.6-1,1.8-1.3c0.2-0.3,0.8-0.8,0.8-0.8
	s0.7-0.7,0.3-1c-0.4-0.3-0.8-1-1.1-0.9s-0.1,1.1-0.7,0.1c-0.6-1-0.5-1.2-0.9-1.4c-0.3-0.2-0.6-0.1-0.4-1.2c0.2-1.1,0.2-1.6,0.2-1.6
	s0.2-0.9,0-1c-0.2-0.1-0.4-0.3-0.8-0.1c-0.4,0.2-2.6,1.3-3.1,1.6c-0.5,0.2-1.1-0.9-0.9-1.5c0.2-0.5,0.1-0.2-0.2-1
	c-0.3-0.8-1.6-0.9-2-0.9c-0.5,0-1.6-0.7-1.9-0.2c-0.3,0.5-2,2-2.3,2.1c-0.3,0.2-0.8-1.3-1,1.1c-0.2,2.4,0.9,3.1-0.4,3.3
	s-2.4,0.9-2.4,0.9s-1,0.1-1,0.7c0,0.6-0.4,2.1-0.9,2.3c-0.5,0.2-1.6-0.1-2-0.5c-0.4-0.5,0.1-2.2,0.1-2.2l0.7-0.7c0,0-5-0.8-4.9-1.1
	c0.1-0.3-1.5-0.9-1.6-1.3s-0.2-1.5-0.1-1.9c0.2-0.4,2.3-2.3,3.4-2.7c1.1-0.4,3-1.3,3.5-1.4c0.5-0.2,1.5-0.1,1.8-0.5
	c0.3-0.4,0.4-1.1,0.4-1.1s-0.2-1.1,0.2-0.9c0.3,0.2,0.9,0.4,0.9,0.6c0.1,0.2,0.1,0.8,0.6,0.2c0.5-0.6,1.3-0.9,1.9-1.2
	c0.6-0.3,1.6-0.2,2.1-0.6c0.5-0.3,1.5-0.6,1.6-1.4c0.1-0.8-0.2-0.6-0.6-0.6c-0.4-0.1,0.2,0.1-1.2,0.7c-1.3,0.6-0.9,0.2-1.9,0.6
	s-1,0.6-1.1,0.2c-0.1-0.4,0.2-1,0.2-1s0.1-0.1-0.5-0.2c-0.5-0.2-0.5,0.1-0.6-0.6c-0.1-0.7,0.4-1.7-0.4-1.4c-0.8,0.3-1.5-0.2-2,1.3
	c-0.5,1.6-2.4,3.2-2.9,2.8c-0.5-0.4-0.5-0.5-0.9-0.5s-0.9-0.5-1.6-0.6c-0.7-0.1-2.8-0.1-3.4,0c-0.5,0.1-1.2-0.3-1.6,0.2
	c-0.5,0.5-1.2,1.1-1.2,1.3c0,0.2-0.7-0.9-0.9-0.8c-0.2,0.1-0.9-0.3-1.6-0.3c-0.7,0-1.2-0.4-1.4-0.4s0.2-0.6,0-0.7s-5.3-0.2-5.3-0.2
	s-1.6-0.6-2.3-0.6c-0.6,0.1-2.4,0.2-3.7,0.4c-1.3,0.2-3.3,1-3.9,1.1c-0.6,0.1-2,0.1-2.3-0.3c-0.2-0.4,0.1-0.3-0.2-0.4
	c-0.3-0.1-0.1-0.2-0.8-0.8c-0.7-0.6,0.3-1-1.1-1c-1.4,0-2.3-0.1-3.5,0c-1.3,0.1-3.8,0.7-4.2,0.6c-0.3-0.1-2.8,0.4-3.2,0.2
	c-0.4-0.2-2.4,0.9-2.7,0.8c-0.4-0.1-1.9,0.1-2.3,0.3c-0.4,0.2-2.3,0.7-1.6,1.1c0.6,0.4,0.5,0.8,0.6,1c0.1,0.2-0.6,0.8-0.6,0.8
	s-0.2,0-1-0.3c-0.9-0.3-1.8-0.5-2.2-0.2c-0.4,0.2-1.1,0.7-0.9,1c0.2,0.3,1.3,1,1.4,0.8c0.2-0.2,0.5-0.7,1-0.6
	c0.5,0.1,1.2-0.3,0.5,0.5c-0.6,0.8-1.2,1.2-1.6,1.3c-0.4,0.1-1.3,0.2-2.2,0.2c-0.9,0.1-0.8-0.3-1.6,0.5c-0.8,0.8-1.1,0.3-1.3,1.2
	c-0.2,0.9-0.3,0.9,0,1.1s-0.6,0.3,0.1,0.5c0.7,0.2,1.6,0.5,1.5,0.7c-0.1,0.2,0.8-0.3,0.3,0.3c-0.5,0.6-0.8,1.2,0.2,0.5
	c0.9-0.6,1.5-0.2,2.3-0.5c0.8-0.4,1.6-0.5,2-0.8c0.5-0.3,0.7-0.8,1.4-1c0.7-0.2,0.2,0.1,0.3,0.5c0.1,0.4,0,0.5,0.5,0.2
	c0.5-0.3,0.5-0.1,1.1-0.5c0.6-0.4,1.3-0.8,1.8-0.5c0.5,0.2,0.6,0.2,0.9,0.2s-0.4-0.1,0.3,0c0.7,0.1-0.3-0.2,2,0.3
	c2.4,0.6,3,0.2,3.1,1c0.2,0.9,0.5-0.1,0.9,0.5c0.4,0.6,0.6,0.1,0.9,1c0.2,0.9,0,3.5-0.2,3.9c-0.2,0.3-0.2,0.3-0.2,1
	c0.1,0.7,1,4.1,0.7,4.3c-0.3,0.2-1,0.3-1,0.3l-0.4,1.4c0,0-0.6,1.2-1.2,1.8c-0.5,0.6-1.3,1.4-1.6,2c-0.4,0.5-0.7,1.5-1.3,2
	c-0.5,0.5-1,0.3-0.9,1.5c0.2,1.2,0,2.4,0.2,3.3c0.2,0.9,0.5,2,0.9,2.5c0.3,0.5,0.5,0.5,1.1,0.9c0.5,0.4,1.3,0.9,1.2,1.3
	c-0.1,0.4,0.1,2.8,0.1,2.8s0.5,0.8,0.5,1.7c0.1,0.9,0.6,1.7,0.6,1.7l0.5,1c0,0,0.2,0.1,0.5,0.7c0.3,0.6,0.3,0.6,0.4,0.9
	c0.1,0.3,0.1,0.2,0.1,0.3c0,0.1-0.1-1.3-0.2-1.7c-0.2-0.4-0.2-0.9-0.3-1.3s0.1-1-0.4-1.7c-0.5-0.7-0.5-0.8-0.7-1.5
	c-0.2-0.7-0.5-1.5-0.2-1.7c0.3-0.2,0.5-1.2,1.2,0c0.6,1.2,0.7,0.9,0.8,1.8c0.1,0.9,0.3,1.3,0.5,1.7c0.2,0.4,0.8,1.7,1.1,2.3
	c0.3,0.5,0-0.3,0.7,0.8c0.7,1.1,0.8,1.3,1.2,2.2c0.4,0.9,0.6,0.9,0.9,1.5c0.2,0.6,0.1,0.5-0.1,1.2c-0.2,0.7,0.2,1.5,0.2,1.5
	s1.1,0.4,1.2,0.6c0.1,0.2,1.2,0.6,1.3,0.9c0.2,0.3,1.2,0.7,1.2,0.7s0.9,0.6,1.2,0.7c0.3,0.2,1.3,0.3,1.3,0.3s0.6,0.2,0.9,0.2
	c0.2,0.1,0.9,0.1,0.9,0.1s0.6-0.5,0.9-0.3c0.2,0.2,0.8-0.3,1,0.1c0.2,0.4,0.7,0.4,0.9,0.7c0.2,0.3,0.5,0.3,0.9,0.7
	c0.4,0.4,0.8,0.3,1.2,0.6c0.4,0.3,0.7,0.3,1.2,0.3c0.5,0,0.5,0,0.8,0.1c0.3,0.1,0.5-0.2,0.8,0.2c0.3,0.4,0.5,0.6,0.8,1
	c0.2,0.4,0.8,0.4,0.9,1c0.1,0.6,0.2,0.6,0.2,1.1c0,0.6,0.3,0.8,0.5,0.9c0.2,0.2,1.1,0.9,1.1,0.9l1.2,0.2l0.9,0.7L321.2,76.1
	L321.2,76.1z M346.4,3l4.7-0.6c0,0,1.6,0,2.5-0.6c0.8-0.6,0-0.6,2.5-1.1c2.5-0.5,1.8-0.7,3.1-0.5c1.3,0.2,1.6,0.2,3.1,0.5
	c1.4,0.2,1.8-0.1,3.1,0.2c1.3,0.4,1.9,0.2,2.9,0.2h3.3c1.6,0,3.2-0.9,3.8-0.4c0.6,0.6,0.9,0.4,2.9,0.6c2,0.2,2.8-0.2,3.6,0
	c0.8,0.2,2.2-0.1,3.9,0c1.6,0.1,2.5-0.1,3.1-0.1c0.6,0,1.2-0.8,2-0.1c0.8,0.7,1.9-0.2,2,0.7c0.1,0.9,1.6,0.2,0.1,0.9
	c-1.5,0.7-1.3,0.6-2.4,1.5s0.7,1.8-1.5,2.6c-2.2,0.8-2.6-0.5-3.2,0.9c-0.6,1.4,0,1.8-0.1,2.5c-0.1,0.7-0.4,0.8-1.1,1.4
	c-0.7,0.6-0.7,0-2.4,0.4c-1.6,0.4-2.8,0.7-3.5,0.7s-2.2,0.6-2.7,0.8c-0.5,0.2,0.8,0.6-1.6,1.3c-2.5,0.7-3.1,0.6-3.8,1.5
	c-0.7,0.9-0.5,1.1-0.9,1.7c-0.5,0.6-1.9,3-2.6,2.4c-0.7-0.6-1.1-0.5-1.6-1.1c-0.6-0.6-0.9-1.4-1.3-1.9c-0.4-0.5-0.5-1.7-0.6-2.4
	c-0.1-0.7-1.2-2.4,0-2.1c1.2,0.2,1.9,0.1,2.2-0.1c0.4-0.2,0.7-1.1,0.7-1.1s-0.1-1.3-0.5-2c-0.4-0.7-0.1-1.3-0.7-2
	c-0.6-0.7-0.6-0.6-1.4-1.3s-0.6-1.1-1.9-1.2c-1.3-0.1-1.6-0.5-2.1-0.4s-2-0.8-0.4-0.9c1.6-0.1,3.2,0.1,3.2,0.1s2.1-0.9,1.4-1.1
	c-0.7-0.1,1.1-1.2-0.6-0.8c-1.6,0.4-3.5,0.8-4,0.9c-0.5,0.1-1.6,0.2-2.8,0.6c-1.2,0.4-2.6,0.2-3.3,1.1c-0.7,0.8,0,0.9-0.7,0.8
	c-0.7-0.1,0.6-0.8-1.1,0c-1.6,0.8-1.2,0.7-2,0.5c-0.8-0.2-1.4-0.6-1.4-0.6s1.1-0.1-0.5-0.2s-1.5-0.1-2.1-0.8s-0.2-0.7,0.1-0.9
	C346.2,3.5,346.4,3,346.4,3L346.4,3z M343.8,8.3c-0.6,0.6-2,1.4-1.6,1.8c0.4,0.4,0.6,1.6,1.3,1.3c0.7-0.4-0.1-1.5,2.6-0.6
	c2.7,0.9,2.5-0.1,3.1,1.3c0.6,1.4,1.1,2.5,0.7,2.8c-0.4,0.4-0.5,0.7-1.6,1.1c-1.2,0.4-1.6,0.8-0.8,1.4c0.8,0.6,2.4,1.2,3.1,1.5
	c0.7,0.4,2.8,0.5,1.8-0.7c-1.1-1.2,0.2-1.5,0.2-1.5s2,1.5,1.3-0.2s-1.2-1.8-0.7-1.8c0.5,0,1.4,0.6,1.4,0.6l0.5-0.9l-0.5-1.5
	l-1.5-1.5c0,0,1.3-1.2-0.5-1.4c-1.8-0.2-1.6-0.2-2.6-0.8c-0.9-0.6-1.1-0.8-2.8-0.5c-1.8,0.4-2.4,0.6-2.4,0.6L343.8,8.3L343.8,8.3z
	 M317.5,9.7c0.7-0.7,2.6-2.4,3.3-1.9c0.7,0.5,1.8-0.4,2.6,0.4c0.8,0.7,1.8,1.5,2.5,1.8c0.7,0.2,1.5-0.6,2.2-0.2
	c0.7,0.4,3.2-1.8,2.7-0.1c-0.5,1.7,0.6,2.1-0.7,2.2c-1.3,0.1-2.7,1.1-3.3,0.7c-0.6-0.4-1.1-0.7-2-0.2c-0.9,0.5-0.5,0.5-1.5,0.2
	c-1.1-0.2-1.3,0.2-1.5-0.1c-0.2-0.4-0.9-0.2-0.8-1.3c0.1-1.1,0.5-0.9-0.2-0.9c-0.7,0-1.3,0.1-1.8-0.2C318.5,9.6,317.5,9.7,317.5,9.7
	L317.5,9.7z"/>
</svg>
